<?xml version="1.0" encoding="utf-8"?>
<!-- Generator: Adobe Illustrator 17.0.0, SVG Export Plug-In . SVG Version: 6.00 Build 0)  -->
<!DOCTYPE svg PUBLIC "-//W3C//DTD SVG 1.1//EN" "http://www.w3.org/Graphics/SVG/1.1/DTD/svg11.dtd">
<svg version="1.1" id="Layer_1" xmlns="http://www.w3.org/2000/svg" xmlns:xlink="http://www.w3.org/1999/xlink" x="0px" y="0px"
	 width="20px" height="41px" viewBox="0 -10.5 20 41" enable-background="new 0 -10.5 20 41" xml:space="preserve">
<g id="icons">
	<g id="exit2">
		<path fill="#333333" d="M10-2.5c1.1,0,2-0.9,2-2v-4c0-1.1-0.9-2-2-2s-2,0.9-2,2v4C8-3.4,8.9-2.5,10-2.5z"/>
		<path fill="#333333" d="M17.1-7.6L17.1-7.6C16.8-7.9,16.5-8,16-8c-0.8,0-1.5,0.7-1.5,1.5c0,0.4,0.2,0.8,0.4,1.1l0,0l0,0l0,0
			c1.3,1.3,2,3,2,4.9c0,3.9-3.1,7-7,7s-7-3.1-7-7c0-1.9,0.8-3.7,2.1-4.9l0,0c0.3-0.3,0.5-0.7,0.5-1.1C5.5-7.3,4.8-8,4-8
			C3.6-8,3.2-7.8,2.9-7.6l0,0C1.1-5.8,0-3.3,0-0.5c0,5.5,4.5,10,10,10S20,5,20-0.5C20-3.3,18.9-5.8,17.1-7.6z"/>
	</g>
</g>
<g id="icons_1_">
	<g id="exit2_1_">
		<path fill="#E54C3F" d="M10,18.5c1.1,0,2-0.9,2-2v-4c0-1.1-0.9-2-2-2s-2,0.9-2,2v4C8,17.6,8.9,18.5,10,18.5z"/>
		<path fill="#E54C3F" d="M17.1,13.4L17.1,13.4C16.8,13.1,16.5,13,16,13c-0.8,0-1.5,0.7-1.5,1.5c0,0.4,0.2,0.8,0.4,1.1l0,0l0,0l0,0
			c1.3,1.3,2,3,2,4.9c0,3.9-3.1,7-7,7s-7-3.1-7-7c0-1.9,0.8-3.7,2.1-4.9l0,0c0.3-0.3,0.5-0.7,0.5-1.1C5.5,13.7,4.8,13,4,13
			c-0.4,0-0.8,0.2-1.1,0.4l0,0C1.1,15.2,0,17.7,0,20.5c0,5.5,4.5,10,10,10s10-4.5,10-10C20,17.7,18.9,15.2,17.1,13.4z"/>
	</g>
</g>
</svg>
