<svg id="Expanded" xmlns="http://www.w3.org/2000/svg" width="17.5" height="17.5" viewBox="0 0 17.5 17.5">
  <g id="Group_3423" data-name="Group 3423">
    <g id="Group_3421" data-name="Group 3421">
      <path id="Path_1543" data-name="Path 1543" d="M9.479,17.5H8.021a1.1,1.1,0,0,1-1.094-1.094V15.049a6.509,6.509,0,0,1-1.342-.557l-.96.961a1.12,1.12,0,0,1-1.547,0L2.046,14.421a1.093,1.093,0,0,1,0-1.547l.961-.961a6.467,6.467,0,0,1-.556-1.341H1.094A1.1,1.1,0,0,1,0,9.479V8.02A1.094,1.094,0,0,1,1.094,6.927H2.451a6.51,6.51,0,0,1,.556-1.341l-.96-.961a1.1,1.1,0,0,1,0-1.547L3.079,2.047a1.12,1.12,0,0,1,1.547,0l.961.961a6.505,6.505,0,0,1,1.341-.556V1.094A1.1,1.1,0,0,1,8.021,0H9.479a1.1,1.1,0,0,1,1.094,1.094V2.451a6.512,6.512,0,0,1,1.341.556l.961-.961a1.12,1.12,0,0,1,1.547,0l1.031,1.031a1.093,1.093,0,0,1,0,1.547l-.96.961a6.476,6.476,0,0,1,.556,1.342h1.357A1.1,1.1,0,0,1,17.5,8.02V9.479a1.094,1.094,0,0,1-1.094,1.094H15.049a6.508,6.508,0,0,1-.556,1.342l.96.961a1.1,1.1,0,0,1,0,1.547l-1.031,1.031a1.12,1.12,0,0,1-1.547,0l-.96-.961a6.51,6.51,0,0,1-1.341.556v1.358A1.1,1.1,0,0,1,9.479,17.5ZM5.526,13.671a.365.365,0,0,1,.19.053,5.789,5.789,0,0,0,1.661.689.365.365,0,0,1,.279.354v1.638a.365.365,0,0,0,.365.365H9.479a.365.365,0,0,0,.365-.365V14.768a.365.365,0,0,1,.279-.354,5.788,5.788,0,0,0,1.661-.689.365.365,0,0,1,.448.053l1.159,1.159a.376.376,0,0,0,.516,0l1.031-1.031a.365.365,0,0,0,0-.516l-1.159-1.159a.365.365,0,0,1-.053-.448,5.782,5.782,0,0,0,.689-1.661.365.365,0,0,1,.354-.279h1.638a.363.363,0,0,0,.258-.107.359.359,0,0,0,.106-.257V8.02a.365.365,0,0,0-.365-.365H14.768a.364.364,0,0,1-.354-.279,5.779,5.779,0,0,0-.689-1.661.365.365,0,0,1,.053-.448l1.159-1.159a.364.364,0,0,0,0-.516L13.906,2.562a.374.374,0,0,0-.516,0L12.231,3.721a.363.363,0,0,1-.448.053,5.784,5.784,0,0,0-1.66-.689.364.364,0,0,1-.279-.354V1.094A.365.365,0,0,0,9.479.729H8.021a.365.365,0,0,0-.365.365V2.732a.365.365,0,0,1-.279.354,5.787,5.787,0,0,0-1.661.689.364.364,0,0,1-.448-.053L4.11,2.563a.374.374,0,0,0-.516,0L2.563,3.594a.365.365,0,0,0,0,.516L3.722,5.268a.365.365,0,0,1,.053.448,5.781,5.781,0,0,0-.689,1.661.365.365,0,0,1-.354.279H1.094a.364.364,0,0,0-.365.364V9.479a.365.365,0,0,0,.365.365H2.732a.364.364,0,0,1,.354.279,5.784,5.784,0,0,0,.689,1.661.365.365,0,0,1-.053.448L2.563,13.391a.364.364,0,0,0,0,.516l1.031,1.031a.374.374,0,0,0,.516,0l1.159-1.159A.361.361,0,0,1,5.526,13.671Z" fill="#f5be17"/>
    </g>
    <g id="Group_3422" data-name="Group 3422" transform="translate(5.104 5.104)">
      <path id="Path_1544" data-name="Path 1544" d="M17.646,21.292a3.646,3.646,0,1,1,3.646-3.646A3.65,3.65,0,0,1,17.646,21.292Zm0-6.562a2.917,2.917,0,1,0,2.917,2.917A2.92,2.92,0,0,0,17.646,14.729Z" transform="translate(-14 -14)" fill="#f5be17"/>
    </g>
  </g>
</svg>
