<svg xmlns="http://www.w3.org/2000/svg" width="18" height="18" viewBox="0 0 18 18">
  <g id="_icons" transform="translate(-3 -3)">
    <g id="Group_3469" data-name="Group 3469">
      <path id="Path_1619" data-name="Path 1619" d="M17,3H7A4.012,4.012,0,0,0,3,7V17a4.012,4.012,0,0,0,4,4H17a4.012,4.012,0,0,0,4-4V7A4.012,4.012,0,0,0,17,3Zm2,14a2.006,2.006,0,0,1-2,2H7a2.006,2.006,0,0,1-2-2V13H7.4l.7,1.4A.961.961,0,0,0,9,15h6a.961.961,0,0,0,.9-.6l.7-1.4H19Zm0-6H16a.961.961,0,0,0-.9.6L14.4,13H9.6l-.7-1.4A.961.961,0,0,0,8,11H5V7A2.006,2.006,0,0,1,7,5H17a2.006,2.006,0,0,1,2,2Z" fill="#9c9c9c"/>
      <path id="Path_1620" data-name="Path 1620" d="M13,16H11a1,1,0,0,0,0,2h2a1,1,0,0,0,0-2Z" fill="#9c9c9c"/>
    </g>
  </g>
</svg>
