<svg xmlns="http://www.w3.org/2000/svg" width="24" height="24" viewBox="0 0 24 24">
  <g id="_4781854_alert_caution_circle_danger_error_icon" data-name="4781854_alert_caution_circle_danger_error_icon" transform="translate(0 -0.273)">
    <g id="Layer_2" data-name="Layer 2" transform="translate(2.248 2.272)">
      <path id="Path_1621" data-name="Path 1621" d="M15.354,16.5a.749.749,0,0,1-.749-.569l-1.131-4.541a1.873,1.873,0,0,1,.382-1.633,1.918,1.918,0,0,1,3,0A1.873,1.873,0,0,1,17.2,11.4L16.1,15.933A.749.749,0,0,1,15.354,16.5Zm0-5.994a.4.4,0,0,0-.33.165.39.39,0,0,0-.075.36l.4,1.634.4-1.634a.39.39,0,0,0-.075-.36A.4.4,0,0,0,15.354,10.508Z" transform="translate(-5.613 -4.514)" fill="#9c9c9c"/>
      <circle id="Ellipse_28" data-name="Ellipse 28" cx="1.124" cy="1.124" r="1.124" transform="translate(8.617 12.738)" fill="#9c9c9c"/>
      <path id="Path_1622" data-name="Path 1622" d="M12.741,22.482a9.741,9.741,0,1,1,9.741-9.741A9.741,9.741,0,0,1,12.741,22.482Zm0-17.983a8.242,8.242,0,1,0,8.242,8.242A8.242,8.242,0,0,0,12.741,4.5Z" transform="translate(-3 -3)" fill="#9c9c9c"/>
    </g>
    <g id="frame" transform="translate(0 0.273)">
      <rect id="Rectangle_842" data-name="Rectangle 842" width="24" height="24" fill="none"/>
    </g>
  </g>
</svg>
