<svg xmlns="http://www.w3.org/2000/svg" width="17.436" height="15.816" viewBox="0 0 17.436 15.816">
  <g id="_2290847_calendar_date_meeting_reminder_time_icon" data-name="2290847_calendar_date_meeting_reminder_time_icon" transform="translate(0.35 0.35)">
    <line id="Line_95" data-name="Line 95" x2="15.313" transform="translate(0.711 1.643)" fill="none" stroke="#000" stroke-linecap="round" stroke-linejoin="round" stroke-width="0.7"/>
    <path id="Path_1545" data-name="Path 1545" d="M455.868,90.968a.714.714,0,0,1,.712.712" transform="translate(-439.844 -89.325)" fill="none" stroke="#000" stroke-linecap="round" stroke-linejoin="round" stroke-width="0.7"/>
    <line id="Line_96" data-name="Line 96" y2="12.047" transform="translate(16.736 2.355)" fill="none" stroke="#000" stroke-linecap="round" stroke-linejoin="round" stroke-width="0.7"/>
    <path id="Path_1546" data-name="Path 1546" d="M456.58,434.041a.714.714,0,0,1-.712.713" transform="translate(-439.844 -419.638)" fill="none" stroke="#000" stroke-linecap="round" stroke-linejoin="round" stroke-width="0.7"/>
    <line id="Line_97" data-name="Line 97" x1="15.313" transform="translate(0.711 15.116)" fill="none" stroke="#000" stroke-linecap="round" stroke-linejoin="round" stroke-width="0.7"/>
    <path id="Path_1547" data-name="Path 1547" d="M25.711,434.754a.714.714,0,0,1-.711-.713" transform="translate(-25 -419.638)" fill="none" stroke="#000" stroke-linecap="round" stroke-linejoin="round" stroke-width="0.7"/>
    <line id="Line_98" data-name="Line 98" y1="12.047" transform="translate(0 2.355)" fill="none" stroke="#000" stroke-linecap="round" stroke-linejoin="round" stroke-width="0.7"/>
    <path id="Path_1548" data-name="Path 1548" d="M25,91.68a.714.714,0,0,1,.711-.712" transform="translate(-25 -89.325)" fill="none" stroke="#000" stroke-linecap="round" stroke-linejoin="round" stroke-width="0.7"/>
    <g id="Group_3426" data-name="Group 3426" transform="translate(2.625)">
      <g id="Group_3424" data-name="Group 3424">
        <line id="Line_99" data-name="Line 99" y2="2.907" transform="translate(0.711)" fill="none" stroke="#000" stroke-linecap="round" stroke-linejoin="round" stroke-width="0.7"/>
        <path id="Path_1549" data-name="Path 1549" d="M96.306,128.89a.712.712,0,1,0-.711-.712.714.714,0,0,0,.711.712" transform="translate(-95.595 -124.465)" fill="none" stroke="#000" stroke-linecap="round" stroke-linejoin="round" stroke-width="0.7"/>
      </g>
      <g id="Group_3425" data-name="Group 3425" transform="translate(10.062)">
        <line id="Line_100" data-name="Line 100" y2="3.001" transform="translate(0.712)" fill="none" stroke="#000" stroke-linecap="round" stroke-linejoin="round" stroke-width="0.7"/>
        <path id="Path_1550" data-name="Path 1550" d="M366.87,128.89a.712.712,0,1,0-.712-.712.713.713,0,0,0,.712.712" transform="translate(-366.159 -124.465)" fill="none" stroke="#000" stroke-linecap="round" stroke-linejoin="round" stroke-width="0.7"/>
      </g>
    </g>
    <line id="Line_101" data-name="Line 101" x2="13" transform="translate(1.868 6.173)" fill="none" stroke="#000" stroke-linecap="round" stroke-linejoin="round" stroke-width="0.7"/>
    <line id="Line_102" data-name="Line 102" x2="0.631" transform="translate(2.263 7.985)" fill="none" stroke="#000" stroke-linecap="round" stroke-linejoin="round" stroke-width="0.7"/>
    <path id="Path_1551" data-name="Path 1551" d="M102.826,261.477a.4.4,0,0,1,.4.395" transform="translate(-99.932 -253.492)" fill="none" stroke="#000" stroke-linecap="round" stroke-linejoin="round" stroke-width="0.7"/>
    <line id="Line_103" data-name="Line 103" y2="0.632" transform="translate(3.29 8.379)" fill="none" stroke="#000" stroke-linecap="round" stroke-linejoin="round" stroke-width="0.7"/>
    <path id="Path_1552" data-name="Path 1552" d="M103.222,289.089a.4.4,0,0,1-.4.4" transform="translate(-99.932 -280.077)" fill="none" stroke="#000" stroke-linecap="round" stroke-linejoin="round" stroke-width="0.7"/>
    <line id="Line_104" data-name="Line 104" x1="0.631" transform="translate(2.263 9.407)" fill="none" stroke="#000" stroke-linecap="round" stroke-linejoin="round" stroke-width="0.7"/>
    <path id="Path_1553" data-name="Path 1553" d="M75.625,289.484a.4.4,0,0,1-.4-.4" transform="translate(-73.362 -280.077)" fill="none" stroke="#000" stroke-linecap="round" stroke-linejoin="round" stroke-width="0.7"/>
    <line id="Line_105" data-name="Line 105" y1="0.632" transform="translate(1.868 8.379)" fill="none" stroke="#000" stroke-linecap="round" stroke-linejoin="round" stroke-width="0.7"/>
    <path id="Path_1554" data-name="Path 1554" d="M75.23,261.872a.4.4,0,0,1,.4-.395" transform="translate(-73.362 -253.492)" fill="none" stroke="#000" stroke-linecap="round" stroke-linejoin="round" stroke-width="0.7"/>
    <line id="Line_106" data-name="Line 106" x2="0.631" transform="translate(9.754 7.985)" fill="none" stroke="#000" stroke-linecap="round" stroke-linejoin="round" stroke-width="0.7"/>
    <path id="Path_1555" data-name="Path 1555" d="M304.248,261.477a.4.4,0,0,1,.4.395" transform="translate(-293.863 -253.492)" fill="none" stroke="#000" stroke-linecap="round" stroke-linejoin="round" stroke-width="0.7"/>
    <line id="Line_107" data-name="Line 107" y2="0.632" transform="translate(10.781 8.379)" fill="none" stroke="#000" stroke-linecap="round" stroke-linejoin="round" stroke-width="0.7"/>
    <path id="Path_1556" data-name="Path 1556" d="M304.643,289.089a.4.4,0,0,1-.4.4" transform="translate(-293.863 -280.077)" fill="none" stroke="#000" stroke-linecap="round" stroke-linejoin="round" stroke-width="0.7"/>
    <line id="Line_108" data-name="Line 108" x1="0.631" transform="translate(9.754 9.407)" fill="none" stroke="#000" stroke-linecap="round" stroke-linejoin="round" stroke-width="0.7"/>
    <path id="Path_1557" data-name="Path 1557" d="M277.03,289.484a.4.4,0,0,1-.4-.4" transform="translate(-267.277 -280.077)" fill="none" stroke="#000" stroke-linecap="round" stroke-linejoin="round" stroke-width="0.7"/>
    <line id="Line_109" data-name="Line 109" y1="0.632" transform="translate(9.358 8.379)" fill="none" stroke="#000" stroke-linecap="round" stroke-linejoin="round" stroke-width="0.7"/>
    <path id="Path_1558" data-name="Path 1558" d="M276.635,261.872a.4.4,0,0,1,.4-.395" transform="translate(-267.277 -253.492)" fill="none" stroke="#000" stroke-linecap="round" stroke-linejoin="round" stroke-width="0.7"/>
    <line id="Line_110" data-name="Line 110" x2="0.632" transform="translate(13.499 7.985)" fill="none" stroke="#000" stroke-linecap="round" stroke-linejoin="round" stroke-width="0.7"/>
    <path id="Path_1559" data-name="Path 1559" d="M404.977,261.477a.4.4,0,0,1,.395.395" transform="translate(-390.846 -253.492)" fill="none" stroke="#000" stroke-linecap="round" stroke-linejoin="round" stroke-width="0.7"/>
    <line id="Line_111" data-name="Line 111" y2="0.632" transform="translate(14.526 8.379)" fill="none" stroke="#000" stroke-linecap="round" stroke-linejoin="round" stroke-width="0.7"/>
    <path id="Path_1560" data-name="Path 1560" d="M405.372,289.089a.4.4,0,0,1-.395.4" transform="translate(-390.846 -280.077)" fill="none" stroke="#000" stroke-linecap="round" stroke-linejoin="round" stroke-width="0.7"/>
    <line id="Line_112" data-name="Line 112" x1="0.632" transform="translate(13.499 9.407)" fill="none" stroke="#000" stroke-linecap="round" stroke-linejoin="round" stroke-width="0.7"/>
    <path id="Path_1561" data-name="Path 1561" d="M377.76,289.484a.4.4,0,0,1-.395-.4" transform="translate(-364.26 -280.077)" fill="none" stroke="#000" stroke-linecap="round" stroke-linejoin="round" stroke-width="0.7"/>
    <line id="Line_113" data-name="Line 113" y1="0.632" transform="translate(13.104 8.379)" fill="none" stroke="#000" stroke-linecap="round" stroke-linejoin="round" stroke-width="0.7"/>
    <path id="Path_1562" data-name="Path 1562" d="M377.363,261.872a.4.4,0,0,1,.395-.395" transform="translate(-364.259 -253.492)" fill="none" stroke="#000" stroke-linecap="round" stroke-linejoin="round" stroke-width="0.7"/>
    <line id="Line_114" data-name="Line 114" x2="0.631" transform="translate(2.263 11.641)" fill="none" stroke="#000" stroke-linecap="round" stroke-linejoin="round" stroke-width="0.7"/>
    <path id="Path_1563" data-name="Path 1563" d="M102.826,359.8a.4.4,0,0,1,.4.395" transform="translate(-99.932 -348.161)" fill="none" stroke="#000" stroke-linecap="round" stroke-linejoin="round" stroke-width="0.7"/>
    <line id="Line_115" data-name="Line 115" y2="0.633" transform="translate(3.29 12.036)" fill="none" stroke="#000" stroke-linecap="round" stroke-linejoin="round" stroke-width="0.7"/>
    <path id="Path_1564" data-name="Path 1564" d="M103.222,387.432a.4.4,0,0,1-.4.395" transform="translate(-99.932 -374.763)" fill="none" stroke="#000" stroke-linecap="round" stroke-linejoin="round" stroke-width="0.7"/>
    <line id="Line_116" data-name="Line 116" x1="0.631" transform="translate(2.263 13.064)" fill="none" stroke="#000" stroke-linecap="round" stroke-linejoin="round" stroke-width="0.7"/>
    <path id="Path_1565" data-name="Path 1565" d="M75.625,387.827a.4.4,0,0,1-.4-.395" transform="translate(-73.362 -374.763)" fill="none" stroke="#000" stroke-linecap="round" stroke-linejoin="round" stroke-width="0.7"/>
    <line id="Line_117" data-name="Line 117" y1="0.633" transform="translate(1.868 12.036)" fill="none" stroke="#000" stroke-linecap="round" stroke-linejoin="round" stroke-width="0.7"/>
    <path id="Path_1566" data-name="Path 1566" d="M75.23,360.2a.4.4,0,0,1,.4-.395" transform="translate(-73.362 -348.161)" fill="none" stroke="#000" stroke-linecap="round" stroke-linejoin="round" stroke-width="0.7"/>
    <line id="Line_118" data-name="Line 118" x2="0.632" transform="translate(6.008 11.641)" fill="none" stroke="#000" stroke-linecap="round" stroke-linejoin="round" stroke-width="0.7"/>
    <path id="Path_1567" data-name="Path 1567" d="M203.545,359.8a.4.4,0,0,1,.4.395" transform="translate(-196.905 -348.161)" fill="none" stroke="#000" stroke-linecap="round" stroke-linejoin="round" stroke-width="0.7"/>
    <line id="Line_119" data-name="Line 119" y2="0.633" transform="translate(7.036 12.036)" fill="none" stroke="#000" stroke-linecap="round" stroke-linejoin="round" stroke-width="0.7"/>
    <path id="Path_1568" data-name="Path 1568" d="M203.941,387.432a.4.4,0,0,1-.4.395" transform="translate(-196.906 -374.763)" fill="none" stroke="#000" stroke-linecap="round" stroke-linejoin="round" stroke-width="0.7"/>
    <line id="Line_120" data-name="Line 120" x1="0.632" transform="translate(6.008 13.064)" fill="none" stroke="#000" stroke-linecap="round" stroke-linejoin="round" stroke-width="0.7"/>
    <path id="Path_1569" data-name="Path 1569" d="M176.319,387.827a.4.4,0,0,1-.4-.395" transform="translate(-170.311 -374.763)" fill="none" stroke="#000" stroke-linecap="round" stroke-linejoin="round" stroke-width="0.7"/>
    <line id="Line_121" data-name="Line 121" y1="0.633" transform="translate(5.613 12.036)" fill="none" stroke="#000" stroke-linecap="round" stroke-linejoin="round" stroke-width="0.7"/>
    <path id="Path_1570" data-name="Path 1570" d="M175.924,360.2a.4.4,0,0,1,.4-.395" transform="translate(-170.311 -348.161)" fill="none" stroke="#000" stroke-linecap="round" stroke-linejoin="round" stroke-width="0.7"/>
    <line id="Line_122" data-name="Line 122" x2="0.631" transform="translate(9.754 11.641)" fill="none" stroke="#000" stroke-linecap="round" stroke-linejoin="round" stroke-width="0.7"/>
    <path id="Path_1571" data-name="Path 1571" d="M304.248,359.8a.4.4,0,0,1,.4.395" transform="translate(-293.863 -348.161)" fill="none" stroke="#000" stroke-linecap="round" stroke-linejoin="round" stroke-width="0.7"/>
    <line id="Line_123" data-name="Line 123" y2="0.633" transform="translate(10.781 12.036)" fill="none" stroke="#000" stroke-linecap="round" stroke-linejoin="round" stroke-width="0.7"/>
    <path id="Path_1572" data-name="Path 1572" d="M304.643,387.432a.4.4,0,0,1-.4.395" transform="translate(-293.863 -374.763)" fill="none" stroke="#000" stroke-linecap="round" stroke-linejoin="round" stroke-width="0.7"/>
    <line id="Line_124" data-name="Line 124" x1="0.631" transform="translate(9.754 13.064)" fill="none" stroke="#000" stroke-linecap="round" stroke-linejoin="round" stroke-width="0.7"/>
    <path id="Path_1573" data-name="Path 1573" d="M277.03,387.827a.4.4,0,0,1-.4-.395" transform="translate(-267.277 -374.763)" fill="none" stroke="#000" stroke-linecap="round" stroke-linejoin="round" stroke-width="0.7"/>
    <line id="Line_125" data-name="Line 125" y1="0.633" transform="translate(9.358 12.036)" fill="none" stroke="#000" stroke-linecap="round" stroke-linejoin="round" stroke-width="0.7"/>
    <path id="Path_1574" data-name="Path 1574" d="M276.635,360.2a.4.4,0,0,1,.4-.395" transform="translate(-267.277 -348.161)" fill="none" stroke="#000" stroke-linecap="round" stroke-linejoin="round" stroke-width="0.7"/>
    <g id="Group_3427" data-name="Group 3427" transform="translate(5.763 8.021)">
      <line id="Line_126" data-name="Line 126" x2="0.527" y2="0.484" transform="translate(0 0.571)" fill="none" stroke="#000" stroke-linecap="round" stroke-linejoin="round" stroke-width="0.7"/>
      <line id="Line_127" data-name="Line 127" x1="0.966" y2="1.054" transform="translate(0.527 0)" fill="none" stroke="#000" stroke-linecap="round" stroke-linejoin="round" stroke-width="0.7"/>
    </g>
    <g id="Group_3428" data-name="Group 3428" transform="translate(13.36 11.678)">
      <line id="Line_128" data-name="Line 128" x2="0.527" y2="0.483" transform="translate(0 0.572)" fill="none" stroke="#000" stroke-linecap="round" stroke-linejoin="round" stroke-width="0.7"/>
      <line id="Line_129" data-name="Line 129" x1="0.966" y2="1.054" transform="translate(0.527)" fill="none" stroke="#000" stroke-linecap="round" stroke-linejoin="round" stroke-width="0.7"/>
    </g>
  </g>
</svg>
