<svg xmlns="http://www.w3.org/2000/svg" width="36" height="36" viewBox="0 0 36 36">
  <g id="Group_3536" data-name="Group 3536" transform="translate(-1107 -365)">
    <g id="Ellipse_135" data-name="Ellipse 135" transform="translate(1107 365)" fill="rgba(255,255,255,0.66)" stroke="#707070" stroke-width="1" opacity="0.66">
      <circle cx="18" cy="18" r="18" stroke="none"/>
      <circle cx="18" cy="18" r="17.5" fill="none"/>
    </g>
    <g id="_8656298_camera_cam_photo_social_media_icon" data-name="8656298_camera_cam_photo_social_media_icon" transform="translate(1114.041 372.836)" opacity="0.66">
      <path id="Path_1591" data-name="Path 1591" d="M11.578,4.673A1.76,1.76,0,0,0,10,5.647l-.463.926A2.934,2.934,0,0,1,6.917,8.194H5.434a1.76,1.76,0,0,0-1.76,1.76V20.516a1.76,1.76,0,0,0,1.76,1.76H21.863a1.76,1.76,0,0,0,1.76-1.76V9.954a1.76,1.76,0,0,0-1.76-1.76H20.38a2.934,2.934,0,0,1-2.624-1.622l-.463-.926a1.76,1.76,0,0,0-1.574-.973Zm-2.624.448A2.934,2.934,0,0,1,11.578,3.5h4.14a2.934,2.934,0,0,1,2.624,1.622l.463.926a1.76,1.76,0,0,0,1.574.973h1.483A2.934,2.934,0,0,1,24.8,9.954V20.516a2.934,2.934,0,0,1-2.934,2.934H5.434A2.934,2.934,0,0,1,2.5,20.516V9.954A2.934,2.934,0,0,1,5.434,7.02H6.917a1.76,1.76,0,0,0,1.574-.973Z" transform="translate(-2.5 -3.5)" fill-rule="evenodd"/>
      <path id="Path_1592" data-name="Path 1592" d="M12.781,9.673a4.107,4.107,0,1,0,4.107,4.107A4.107,4.107,0,0,0,12.781,9.673ZM7.5,13.781a5.281,5.281,0,1,1,5.281,5.281A5.281,5.281,0,0,1,7.5,13.781Z" transform="translate(-1.633 -2.633)" fill-rule="evenodd"/>
    </g>
  </g>
</svg>
