<svg xmlns="http://www.w3.org/2000/svg" width="18.853" height="22.618" viewBox="0 0 18.853 22.618">
  <g id="delete" transform="translate(0.25 0.25)">
    <path id="Path_237" data-name="Path 237" d="M17.037,3.449H15.813a3.035,3.035,0,0,0-2.7-1.638H11.373A2.1,2.1,0,0,0,9.292,0H9.06A2.1,2.1,0,0,0,6.978,1.811H5.208a3.04,3.04,0,0,0-2.7,1.638h-1.2a1.315,1.315,0,0,0,0,2.63H2.22l.8,14.627a1.493,1.493,0,0,0,1.491,1.412H9.873a.323.323,0,1,0,0-.647H4.507a.846.846,0,0,1-.845-.8L2.868,6.079H4.606a.323.323,0,1,0,0-.647H1.315a.668.668,0,0,1,0-1.337H17.037a.668.668,0,1,1,0,1.336l-10.922,0h0a.323.323,0,0,0,0,.647l9.366,0-.836,14.594a.847.847,0,0,1-.845.8H11.388a.323.323,0,0,0,0,.647H13.8A1.494,1.494,0,0,0,15.29,20.71l.838-14.631h.909a1.315,1.315,0,0,0,0-2.63ZM9.06.647h.232a1.457,1.457,0,0,1,1.426,1.164H7.634A1.458,1.458,0,0,1,9.06.647ZM5.208,2.458h7.906a2.39,2.39,0,0,1,1.941.992H3.268a2.393,2.393,0,0,1,1.941-.992Zm0,0" transform="translate(0 0)" fill="#9c9c9c" stroke="#9c9c9c" stroke-width="0.5"/>
    <path id="Path_238" data-name="Path 238" d="M191.731,172.129a.935.935,0,0,0-.934.934v9.449a.934.934,0,0,0,1.868,0v-9.449a.935.935,0,0,0-.934-.934Zm.288.934v9.449a.287.287,0,0,1-.575,0v-9.449a.287.287,0,0,1,.287-.287h0A.287.287,0,0,1,192.018,173.063Zm0,0" transform="translate(-182.555 -164.693)" fill="#9c9c9c" stroke="#9c9c9c" stroke-width="0.5"/>
    <path id="Path_239" data-name="Path 239" d="M273,179.858a.324.324,0,0,0,.332-.314l.183-6.455a.934.934,0,0,0-1.867-.053l-.267,9.449a.934.934,0,0,0,1.867.053l.042-1.506a.323.323,0,0,0-.646-.018l-.043,1.506a.287.287,0,1,1-.574-.016l.267-9.449a.287.287,0,1,1,.574.016l-.183,6.455A.323.323,0,0,0,273,179.858Zm0,0" transform="translate(-259.654 -164.693)" fill="#9c9c9c" stroke="#9c9c9c" stroke-width="0.5"/>
    <path id="Path_240" data-name="Path 240" d="M104.975,172.129a.934.934,0,0,0-.933.96l.267,9.449a.934.934,0,0,0,1.867-.053l-.267-9.449A.929.929,0,0,0,104.975,172.129Zm.473,10.583a.287.287,0,0,1-.493-.192l-.267-9.449a.287.287,0,1,1,.574-.016l.267,9.449A.285.285,0,0,1,105.449,182.712Zm0,0" transform="translate(-99.547 -164.693)" fill="#9c9c9c" stroke="#9c9c9c" stroke-width="0.5"/>
  </g>
</svg>
