<svg xmlns="http://www.w3.org/2000/svg" width="16.75" height="17.997" viewBox="0 0 16.75 17.997">
  <g id="_icons" transform="translate(-4 -4.003)">
    <path id="Path_1623" data-name="Path 1623" d="M18.165,4.787a4.676,4.676,0,0,0-4.549,0,2.845,2.845,0,0,1-2.688,0l-.414-.225A5.335,5.335,0,0,0,7,4.112l-.724.225A3.313,3.313,0,0,0,4,7.262V20.875a1.038,1.038,0,1,0,2.068,0V15.7l1.448-.45a2.635,2.635,0,0,1,2.068.225l.517.225a5.259,5.259,0,0,0,2.275.563,6.119,6.119,0,0,0,2.378-.563,2.845,2.845,0,0,1,2.688,0h0a2.138,2.138,0,0,0,2.171-.113A2.457,2.457,0,0,0,20.75,13.45V8.95A5.722,5.722,0,0,0,18.165,4.787Zm.31,8.775c0,.113-.1.113-.1.225h-.207a4.676,4.676,0,0,0-4.549,0,2.845,2.845,0,0,1-2.688,0l-.517-.225A5.259,5.259,0,0,0,8.136,13a4.638,4.638,0,0,0-1.241.113l-.827.225V7.6a1.069,1.069,0,0,1,.724-1.013l.724-.225a2.635,2.635,0,0,1,2.068.225L10,6.812a4.676,4.676,0,0,0,4.549,0,2.845,2.845,0,0,1,2.688,0,2.514,2.514,0,0,1,1.241,2.25Z" transform="translate(0 0)" fill="#9c9c9c"/>
  </g>
</svg>
