<svg xmlns="http://www.w3.org/2000/svg" width="17.572" height="18.186" viewBox="0 0 17.572 18.186">
  <g id="Group_3507" data-name="Group 3507" transform="translate(0.25 0.258)">
    <g id="Group_363" data-name="Group 363">
      <path id="Path_557" data-name="Path 557" d="M18.915,16.747A1.15,1.15,0,0,1,19.866,16,1.131,1.131,0,0,1,21,16.668a2.734,2.734,0,0,1,.112,1.111h2.276a4.824,4.824,0,0,1,.037-.9,1.185,1.185,0,0,1,.608-.776,1.1,1.1,0,0,1,.959-.013,1.193,1.193,0,0,1,.659.92c.024.254.007.51.012.764H27.94a3.942,3.942,0,0,1,.053-.956,1.17,1.17,0,0,1,.767-.786,1.1,1.1,0,0,1,.858.1,1.2,1.2,0,0,1,.593.972c.009.224,0,.449,0,.674H31.6a1.413,1.413,0,0,1,.619.132,1.5,1.5,0,0,1,.838,1.361q0,3.84,0,7.68a.423.423,0,0,1-.052.245.277.277,0,0,1-.4.073.318.318,0,0,1-.12-.279q0-2.517,0-5.035H16.56q0,4.624,0,9.248a.881.881,0,0,0,.853.893q3.966,0,7.932,0a.3.3,0,0,1,.316.336.294.294,0,0,1-.314.26h-7.9a1.4,1.4,0,0,1-.987-.383,1.533,1.533,0,0,1-.473-1.144V19.308a1.542,1.542,0,0,1,.382-1.052,1.393,1.393,0,0,1,1.04-.476c.475,0,.949,0,1.424,0A3.2,3.2,0,0,1,18.915,16.747Zm.959-.151a.589.589,0,0,0-.469.582c0,.56,0,1.121,0,1.682a.89.89,0,0,0,.04.33.572.572,0,0,0,.606.374.591.591,0,0,0,.491-.588q0-.9,0-1.8A.581.581,0,0,0,19.874,16.6Zm4.552,0a.591.591,0,0,0-.469.584c0,.56,0,1.12,0,1.68a.876.876,0,0,0,.041.331.571.571,0,0,0,.6.373.592.592,0,0,0,.494-.591q0-.9,0-1.791A.582.582,0,0,0,24.426,16.6Zm4.553,0a.59.59,0,0,0-.47.585q0,.9,0,1.8a.569.569,0,1,0,1.136,0q0-.9,0-1.792A.582.582,0,0,0,28.98,16.595ZM16.636,18.9a1.041,1.041,0,0,0-.077.445c0,.67,0,1.341,0,2.012H32.492c0-.71,0-1.419,0-2.128a.877.877,0,0,0-.813-.852c-.486-.006-.974,0-1.461,0-.006.263.015.526-.016.788a1.166,1.166,0,0,1-1.017,1,1.137,1.137,0,0,1-1.143-.7,2.875,2.875,0,0,1-.1-1.085H25.664c0,.246.01.493-.009.739a1.184,1.184,0,0,1-.786.994,1.122,1.122,0,0,1-1.344-.569,2.508,2.508,0,0,1-.138-1.164H21.112c0,.225.005.451,0,.676a1.19,1.19,0,0,1-.744,1.041,1.121,1.121,0,0,1-1.392-.554,2.51,2.51,0,0,1-.137-1.163c-.475,0-.949,0-1.424,0A.856.856,0,0,0,16.636,18.9Z" transform="translate(-15.99 -15.989)" fill="#9c9c9c" stroke="#9c9c9c" stroke-width="0.5"/>
    </g>
    <g id="Group_364" data-name="Group 364" transform="translate(1.945 7.535)">
      <path id="Path_558" data-name="Path 558" d="M80.381,215.965c.352-.017.706,0,1.059-.007a.488.488,0,0,1,.483.482c0,.255,0,.51,0,.765a.487.487,0,0,1-.482.453q-.488,0-.976,0a.487.487,0,0,1-.483-.451c-.005-.255,0-.511,0-.766A.486.486,0,0,1,80.381,215.965Zm.084.479v.73h.973v-.73Z" transform="translate(-79.978 -215.956)" fill="#9c9c9c" stroke="#9c9c9c" stroke-width="0.5"/>
    </g>
    <g id="Group_365" data-name="Group 365" transform="translate(5.816 7.535)">
      <path id="Path_559" data-name="Path 559" d="M176.349,215.965c.352-.017.7,0,1.057-.007a.488.488,0,0,1,.484.482q0,.367,0,.733a.49.49,0,0,1-.307.452.784.784,0,0,1-.3.035c-.284,0-.568,0-.852,0a.489.489,0,0,1-.477-.4c-.015-.292-.01-.585,0-.876A.484.484,0,0,1,176.349,215.965Zm.083.479v.73h.973v-.73Z" transform="translate(-175.943 -215.956)" fill="#9c9c9c" stroke="#9c9c9c" stroke-width="0.5"/>
    </g>
    <g id="Group_366" data-name="Group 366" transform="translate(9.306 7.534)">
      <path id="Path_560" data-name="Path 560" d="M272.346,215.96c.352-.017.706,0,1.058-.007a.487.487,0,0,1,.483.454c.005.254,0,.508,0,.762a.488.488,0,0,1-.485.485q-.487,0-.975,0a.49.49,0,0,1-.477-.4c-.015-.291-.009-.584,0-.875A.484.484,0,0,1,272.346,215.96Zm.084.479v.73h.973v-.73Z" transform="translate(-271.942 -215.951)" fill="#9c9c9c" stroke="#9c9c9c" stroke-width="0.5"/>
    </g>
    <g id="Group_367" data-name="Group 367" transform="translate(13.179 7.535)">
      <path id="Path_561" data-name="Path 561" d="M368.383,215.963c.353-.018.707,0,1.061-.007a.488.488,0,0,1,.483.484c0,.254,0,.509,0,.763a.487.487,0,0,1-.483.454q-.488,0-.975,0a.487.487,0,0,1-.483-.453c-.005-.255,0-.51,0-.765A.486.486,0,0,1,368.383,215.963Zm.085.478v.73h.973v-.73Z" transform="translate(-367.982 -215.953)" fill="#9c9c9c" stroke="#9c9c9c" stroke-width="0.5"/>
    </g>
    <g id="Group_368" data-name="Group 368" transform="translate(1.945 10.248)">
      <path id="Path_562" data-name="Path 562" d="M80.375,287.965c.353-.017.706,0,1.059-.007a.488.488,0,0,1,.483.482c0,.255,0,.511,0,.766a.486.486,0,0,1-.481.453q-.489,0-.978,0a.487.487,0,0,1-.481-.452c-.007-.193,0-.387,0-.58a.9.9,0,0,1,.043-.384A.486.486,0,0,1,80.375,287.965Zm.084.479v.73h.973v-.73Z" transform="translate(-79.972 -287.956)" fill="#9c9c9c" stroke="#9c9c9c" stroke-width="0.5"/>
    </g>
    <g id="Group_369" data-name="Group 369" transform="translate(5.816 10.247)">
      <path id="Path_563" data-name="Path 563" d="M176.36,287.963c.352-.018.706,0,1.059-.007a.488.488,0,0,1,.484.483c0,.255,0,.509,0,.764a.487.487,0,0,1-.482.454q-.487,0-.975,0a.488.488,0,0,1-.481-.425c-.008-.284-.008-.569,0-.852A.484.484,0,0,1,176.36,287.963Zm.085.478v.73h.973v-.73Z" transform="translate(-175.958 -287.953)" fill="#9c9c9c" stroke="#9c9c9c" stroke-width="0.5"/>
    </g>
    <path id="Path_564" data-name="Path 564" d="M272.263,288.022a.792.792,0,0,1,.352-.044c.275,0,.55,0,.825,0a.242.242,0,0,1,0,.483c-.325,0-.65,0-.974,0v.722a.291.291,0,0,1,.21.129.244.244,0,0,1-.15.356.481.481,0,0,1-.544-.444c-.005-.256,0-.512,0-.767A.485.485,0,0,1,272.263,288.022Z" transform="translate(-262.699 -277.73)" fill="#9c9c9c" stroke="#9c9c9c" stroke-width="0.5"/>
    <g id="Group_370" data-name="Group 370" transform="translate(10.749 11.356)">
      <path id="Path_565" data-name="Path 565" d="M290.82,288.046a3.159,3.159,0,1,1-1.444.556A3.15,3.15,0,0,1,290.82,288.046Zm.028.486a2.674,2.674,0,1,0,1.651.315A2.683,2.683,0,0,0,290.848,288.532Z" transform="translate(-288.038 -288.023)" fill="#9c9c9c" stroke="#9c9c9c" stroke-width="0.5"/>
    </g>
    <path id="Path_566" data-name="Path 566" d="M337.261,356.364c.066-.065.132-.147.232-.154a.244.244,0,0,1,.267.237.27.27,0,0,1-.093.2q-.973.973-1.946,1.946c-.067.065-.133.149-.232.16a.265.265,0,0,1-.234-.1c-.333-.337-.671-.669-1-1.006a.242.242,0,0,1,.022-.352.245.245,0,0,1,.336.025c.283.281.565.565.847.847Q336.36,357.267,337.261,356.364Z" transform="translate(-322.035 -342.78)" fill="#9c9c9c" stroke="#9c9c9c" stroke-width="0.5"/>
    <g id="Group_371" data-name="Group 371" transform="translate(1.945 12.961)">
      <path id="Path_567" data-name="Path 567" d="M80.378,359.965c.353-.017.707,0,1.06-.007a.488.488,0,0,1,.482.484q0,.366,0,.732a.489.489,0,0,1-.306.451.793.793,0,0,1-.3.035c-.284,0-.568,0-.853,0a.487.487,0,0,1-.481-.453c-.007-.193,0-.387,0-.58a.889.889,0,0,1,.044-.384A.486.486,0,0,1,80.378,359.965Zm.084.479v.73h.973v-.73Z" transform="translate(-79.975 -359.956)" fill="#9c9c9c" stroke="#9c9c9c" stroke-width="0.5"/>
    </g>
    <g id="Group_372" data-name="Group 372" transform="translate(5.817 12.961)">
      <path id="Path_568" data-name="Path 568" d="M176.377,359.967c.342-.018.685,0,1.028-.008a.492.492,0,0,1,.471.285.882.882,0,0,1,.045.384c0,.194,0,.387,0,.581a.486.486,0,0,1-.482.452q-.487,0-.974,0a.488.488,0,0,1-.484-.453c-.007-.193,0-.387,0-.58a.993.993,0,0,1,.034-.36A.486.486,0,0,1,176.377,359.967Zm.085.478v.73h.973v-.73Z" transform="translate(-175.975 -359.958)" fill="#9c9c9c" stroke="#9c9c9c" stroke-width="0.5"/>
    </g>
  </g>
</svg>
