<svg xmlns="http://www.w3.org/2000/svg" width="19" height="19" viewBox="0 0 19 19">
  <g id="Group_3615" data-name="Group 3615" transform="translate(-512.482 -411)">
    <g id="Group_3614" data-name="Group 3614" transform="translate(512.482 411)">
      <path id="Path_565" data-name="Path 565" d="M296.4,288.093a9.5,9.5,0,1,1-4.342,1.67A9.469,9.469,0,0,1,296.4,288.093Zm.085,1.461a8.04,8.04,0,1,0,4.964.948A8.065,8.065,0,0,0,296.486,289.554Z" transform="translate(-288.038 -288.023)" fill="#9c9c9c"/>
    </g>
    <path id="Path_2328" data-name="Path 2328" d="M343.43,356.677c.2-.195.4-.442.7-.462a.733.733,0,0,1,.8.714.81.81,0,0,1-.28.6q-2.926,2.924-5.849,5.849c-.2.2-.4.448-.7.48a.8.8,0,0,1-.7-.3c-1-1.012-2.017-2.01-3.015-3.025a.727.727,0,0,1,.065-1.057.737.737,0,0,1,1.011.075c.852.846,1.7,1.7,2.548,2.546Q340.72,359.389,343.43,356.677Z" transform="translate(182.51 61.022)" fill="#9c9c9c"/>
  </g>
</svg>
