<svg xmlns="http://www.w3.org/2000/svg" width="23.03" height="21.259" viewBox="0 0 23.03 21.259">
  <g id="_3844437_hamburger_list_menu_more_navigation_icon" data-name="3844437_hamburger_list_menu_more_navigation_icon" transform="translate(-3 -4)">
    <path id="XMLID_352_" d="M26.715,15.772a1.772,1.772,0,0,1-1.772,1.772H10.772a1.772,1.772,0,0,1,0-3.543H24.944A1.772,1.772,0,0,1,26.715,15.772Z" transform="translate(-0.685 -1.142)"/>
    <path id="XMLID_354_" d="M26.715,5.772a1.772,1.772,0,0,1-1.772,1.772H10.772a1.772,1.772,0,0,1,0-3.543H24.944A1.772,1.772,0,0,1,26.715,5.772Z" transform="translate(-0.685)"/>
    <path id="XMLID_356_" d="M26.715,25.772a1.772,1.772,0,0,1-1.772,1.772H10.772a1.772,1.772,0,0,1,0-3.543H24.944A1.772,1.772,0,0,1,26.715,25.772Z" transform="translate(-0.685 -2.285)"/>
    <path id="XMLID_358_" d="M3,5.772A1.772,1.772,0,1,0,4.772,4,1.773,1.773,0,0,0,3,5.772Z"/>
    <path id="XMLID_360_" d="M3,15.772A1.772,1.772,0,1,0,4.772,14,1.773,1.773,0,0,0,3,15.772Z" transform="translate(0 -1.142)"/>
    <path id="XMLID_362_" d="M3,25.772A1.772,1.772,0,1,0,4.772,24,1.773,1.773,0,0,0,3,25.772Z" transform="translate(0 -2.285)"/>
  </g>
</svg>
