<svg xmlns="http://www.w3.org/2000/svg" width="18.472" height="15.541" viewBox="0 0 18.472 15.541">
  <g id="_7019478_interview_chat_communication_question_conversation_icon" data-name="7019478_interview_chat_communication_question_conversation_icon" transform="translate(0.35 0.35)">
    <path id="Path_1536" data-name="Path 1536" d="M17.918,10.05v2.323H14.268a1.67,1.67,0,0,0-.549.082,1.959,1.959,0,0,0-.8.482,2.159,2.159,0,0,0-.653,1.558v2.642H7.812L4.05,20.779V10.05A3.087,3.087,0,0,1,5.267,7.564,2.723,2.723,0,0,1,6.929,7h8.11a2.775,2.775,0,0,1,1.929.787A3.109,3.109,0,0,1,17.918,10.05Z" transform="translate(-4.05 -7)" fill="none" stroke="#f5be17" stroke-linecap="round" stroke-linejoin="round" stroke-width="0.7"/>
    <path id="Path_1537" data-name="Path 1537" d="M24.685,16.343v7.376L22.1,21.2H17.131a1.9,1.9,0,0,1-1.4-.623,2.144,2.144,0,0,1-.579-1.484V16.343a2.159,2.159,0,0,1,.631-1.529,1.959,1.959,0,0,1,.742-.453,1.67,1.67,0,0,1,.549-.082h5.573a1.862,1.862,0,0,1,1.143.386A2.1,2.1,0,0,1,24.685,16.343Z" transform="translate(-6.913 -8.878)" fill="none" stroke="#f5be17" stroke-linecap="round" stroke-linejoin="round" stroke-width="0.7"/>
    <ellipse id="Ellipse_10" data-name="Ellipse 10" cx="0.868" cy="0.92" rx="0.868" ry="0.92" transform="translate(3.035 3.673)" fill="none" stroke="#f5be17" stroke-linecap="round" stroke-linejoin="round" stroke-width="0.7"/>
    <ellipse id="Ellipse_11" data-name="Ellipse 11" cx="0.868" cy="0.92" rx="0.868" ry="0.92" transform="translate(6.07 3.673)" fill="none" stroke="#f5be17" stroke-linecap="round" stroke-linejoin="round" stroke-width="0.7"/>
    <path id="Path_1538" data-name="Path 1538" d="M18.048,12.86a.942.942,0,0,1-.4.779h-.215a1.67,1.67,0,0,0-.549.082.913.913,0,0,1-.564-.861.868.868,0,1,1,1.729,0Z" transform="translate(-7.214 -8.267)" fill="none" stroke="#f5be17" stroke-linecap="round" stroke-linejoin="round" stroke-width="0.7"/>
    <path id="Path_1539" data-name="Path 1539" d="M20.41,17.546a.868.868,0,1,1,.861.92" transform="translate(-8.27 -9.51)" fill="none" stroke="#f5be17" stroke-linecap="round" stroke-linejoin="round" stroke-width="0.7"/>
    <line id="Line_94" data-name="Line 94" y2="0.067" transform="translate(12.57 10.73)" fill="none" stroke="#f5be17" stroke-linecap="round" stroke-linejoin="round" stroke-width="0.7"/>
    <path id="Path_1540" data-name="Path 1540" d="M21.42,19.07a.445.445,0,0,0-.43.46v.3" transform="translate(-8.42 -10.114)" fill="none" stroke="#f5be17" stroke-linecap="round" stroke-linejoin="round" stroke-width="0.7"/>
  </g>
</svg>
