<svg xmlns="http://www.w3.org/2000/svg" width="65.999" height="54" viewBox="0 0 65.999 54">
  <g id="_7019478_interview_chat_communication_question_conversation_icon" data-name="7019478_interview_chat_communication_question_conversation_icon" transform="translate(-3.05 -6)">
    <path id="Path_1575" data-name="Path 1575" d="M52.644,17.686v8.138H39.852a5.85,5.85,0,0,0-1.924.286A6.864,6.864,0,0,0,35.12,27.8a7.566,7.566,0,0,0-2.288,5.46v9.256h-15.6L4.05,55.282v-37.6a10.816,10.816,0,0,1,4.264-8.71A9.542,9.542,0,0,1,14.138,7H42.556a9.724,9.724,0,0,1,6.76,2.756A10.894,10.894,0,0,1,52.644,17.686Z" transform="translate(0 0)" fill="none" stroke="#fff" stroke-linecap="round" stroke-linejoin="round" stroke-width="2"/>
    <path id="Path_1576" data-name="Path 1576" d="M48.56,21.509V47.353l-9.048-8.84H22.092a6.656,6.656,0,0,1-4.914-2.184,7.514,7.514,0,0,1-2.028-5.2v-9.62a7.566,7.566,0,0,1,2.21-5.356,6.864,6.864,0,0,1,2.6-1.586,5.85,5.85,0,0,1,1.924-.286H41.41a6.526,6.526,0,0,1,4,1.352,7.358,7.358,0,0,1,3.146,5.876Z" transform="translate(19.489 11.647)" fill="none" stroke="#fff" stroke-linecap="round" stroke-linejoin="round" stroke-width="2"/>
    <ellipse id="Ellipse_23" data-name="Ellipse 23" cx="3.042" cy="3.224" rx="3.042" ry="3.224" transform="translate(15.011 19.87)" fill="none" stroke="#fff" stroke-linecap="round" stroke-linejoin="round" stroke-width="2"/>
    <ellipse id="Ellipse_24" data-name="Ellipse 24" cx="3.042" cy="3.224" rx="3.042" ry="3.224" transform="translate(25.973 19.87)" fill="none" stroke="#fff" stroke-linecap="round" stroke-linejoin="round" stroke-width="2"/>
    <path id="Path_1577" data-name="Path 1577" d="M22.386,15.235a3.3,3.3,0,0,1-1.4,2.73h-.754a5.85,5.85,0,0,0-1.924.286,3.2,3.2,0,0,1-1.976-3.016,3.042,3.042,0,1,1,6.058,0Z" transform="translate(20.605 7.859)" fill="none" stroke="#fff" stroke-linecap="round" stroke-linejoin="round" stroke-width="2"/>
    <path id="Path_1578" data-name="Path 1578" d="M20.41,19.59a3.042,3.042,0,1,1,3.016,3.224" transform="translate(27.485 15.568)" fill="none" stroke="#fff" stroke-linecap="round" stroke-linejoin="round" stroke-width="2"/>
    <line id="Line_130" data-name="Line 130" y2="0.234" transform="translate(49.317 44.596)" fill="none" stroke="#fff" stroke-linecap="round" stroke-linejoin="round" stroke-width="2"/>
    <path id="Path_1579" data-name="Path 1579" d="M22.5,19.07a1.56,1.56,0,0,0-1.508,1.612v1.04" transform="translate(28.357 19.312)" fill="none" stroke="#fff" stroke-linecap="round" stroke-linejoin="round" stroke-width="2"/>
  </g>
</svg>
