<svg xmlns="http://www.w3.org/2000/svg" width="20" height="20" viewBox="0 0 20 20" fill="#f5be17">
  <g id="Layer_2" data-name="Layer 2" transform="translate(-0.489 -0.799)">
    <g id="Icons" transform="translate(0 0.31)">
      <g id="Folder">
        <rect id="Rectangle_841" data-name="Rectangle 841" width="20" height="20" transform="translate(0.489 0.489)" fill="none"/>
        <path id="Path_1605" data-name="Path 1605" d="M23.679,15.2h-.018l.682-7.777a.832.832,0,0,0-.761-.9l-9.757-.853a.835.835,0,0,0-.906.754L12.83,7.462h-.782a.828.828,0,0,0-.828.814v13.3a.828.828,0,0,0,.828.828H13.47a.9.9,0,0,0,.828.558h9.38a.9.9,0,0,0,.892-.892V16.1a.9.9,0,0,0-.892-.892ZM13.63,6.5a.117.117,0,0,1,.128-.107l9.761.853a.117.117,0,0,1,.107.128L22.946,15.2h-.27V8.276a.828.828,0,0,0-.828-.828h-8.3ZM13.388,17.72V21.7h-1.34a.117.117,0,0,1-.117-.117V8.276a.117.117,0,0,1,.117-.117h9.8a.117.117,0,0,1,.117.117V15.2H20.291a1.422,1.422,0,0,0-.889.313l-1.44,1.145a.711.711,0,0,1-.448.156H14.288a.892.892,0,0,0-.892.892ZM23.86,22.074a.181.181,0,0,1-.181.181H14.288a.181.181,0,0,1-.181-.181V17.71a.181.181,0,0,1,.181-.181h3.228a1.422,1.422,0,0,0,.892-.313l1.422-1.145a.736.736,0,0,1,.448-.156h3.387a.181.181,0,0,1,.181.181Z" transform="translate(-7.232 -3.906)"/>
        <path id="Path_1606" data-name="Path 1606" d="M40.566,48.27h-1.34a.355.355,0,0,0,0,.711h1.34a.355.355,0,1,0,0-.711Z" transform="translate(-25.053 -31.363)"/>
        <path id="Path_1607" data-name="Path 1607" d="M24.055,16.831h1.884a.355.355,0,0,0,0-.711H24.055a.355.355,0,1,0,0,.711Z" transform="translate(-15.276 -10.641)"/>
        <path id="Path_1608" data-name="Path 1608" d="M18.355,22.5H24.27a.355.355,0,0,0,0-.711H18.355a.355.355,0,0,0,0,.711Z" transform="translate(-11.602 -14.296)"/>
        <path id="Path_1609" data-name="Path 1609" d="M24.626,27.185a.355.355,0,0,0-.355-.355H18.355a.355.355,0,0,0,0,.711H24.27A.355.355,0,0,0,24.626,27.185Z" transform="translate(-11.602 -17.544)"/>
      </g>
    </g>
  </g>
</svg>
