<svg xmlns="http://www.w3.org/2000/svg" width="14.73" height="12.566" viewBox="0 0 14.73 12.566" fill="#f5be17">
  <g id="Layer_26" data-name="Layer 26" transform="translate(-1 -3)">
    <path id="Path_2317" data-name="Path 2317" d="M11.833,20.868A2.833,2.833,0,0,1,9,18.035V17a.567.567,0,0,1,.278-.487l2.057-1.235a.567.567,0,0,1,.567.974l-1.768,1.071v.708a1.7,1.7,0,0,0,1.7,1.7.567.567,0,0,1,0,1.133Z" transform="translate(-3.468 -5.301)" fill="#f5be17"/>
    <path id="Path_2318" data-name="Path 2318" d="M4.4,20.868H3.833A2.833,2.833,0,0,1,1,18.035V17a.567.567,0,0,1,.278-.487l2.057-1.235a.567.567,0,0,1,.567.974L2.133,17.327v.708a1.7,1.7,0,0,0,1.7,1.7H4.4a.567.567,0,1,1,0,1.133Z" transform="translate(0 -5.301)" fill="#f5be17"/>
    <path id="Path_2319" data-name="Path 2319" d="M7.4,9.8A3.4,3.4,0,0,1,7.4,3a.567.567,0,0,1,0,1.133,2.266,2.266,0,0,0,0,4.532A.567.567,0,0,1,7.4,9.8Z" transform="translate(-1.3)" fill="#f5be17"/>
    <path id="Path_2320" data-name="Path 2320" d="M15.4,9.8a3.4,3.4,0,1,1,3.4-3.4A3.4,3.4,0,0,1,15.4,9.8Zm0-5.666A2.266,2.266,0,1,0,17.666,6.4,2.266,2.266,0,0,0,15.4,4.133Z" transform="translate(-4.768)" fill="#f5be17"/>
    <path id="Path_2321" data-name="Path 2321" d="M9.567,20.868A2.833,2.833,0,0,0,12.4,18.035V17a.567.567,0,0,0-.278-.487l-2.057-1.235a.567.567,0,0,0-.567.975l1.768,1.071v.708a1.7,1.7,0,0,1-1.7,1.7.567.567,0,0,0,0,1.133Z" transform="translate(3.331 -5.301)" fill="#f5be17"/>
  </g>
</svg>
