<svg xmlns="http://www.w3.org/2000/svg" width="23" height="23" viewBox="0 0 23 23">
  <g id="Group_3564" data-name="Group 3564" transform="translate(-1747 -102)">
    <g id="_13-small.d796bffd" data-name="13-small.d796bffd" transform="translate(1747 102)" fill="none" stroke="#f5be17" stroke-width="1">
      <circle cx="11.5" cy="11.5" r="11.5" stroke="none"/>
      <circle cx="11.5" cy="11.5" r="11" fill="none"/>
    </g>
    <g id="Logout_" data-name="Logout " transform="translate(1751.097 106.42)">
      <path id="Path_4563" data-name="Path 4563" d="M7.41,14.49A7.12,7.12,0,0,1,7.41.25a.516.516,0,0,1,0,1.032,6.088,6.088,0,0,0,0,12.176.516.516,0,0,1,0,1.032Z" transform="translate(0)"/>
      <path id="Path_4564" data-name="Path 4564" d="M21.812,17.282h-7.3a.516.516,0,1,1,0-1.032h7.3a.516.516,0,1,1,0,1.032Z" transform="translate(-8.051 -9.396)"/>
      <path id="Path_4565" data-name="Path 4565" d="M25.8,15.941a.516.516,0,0,1-.365-.881l2.635-2.635a.248.248,0,0,0,0-.346L25.436,9.445a.516.516,0,0,1,.73-.731L28.8,11.349a1.28,1.28,0,0,1,0,1.805L26.166,15.79A.514.514,0,0,1,25.8,15.941Z" transform="translate(-14.678 -4.882)"/>
    </g>
  </g>
</svg>
