<svg xmlns="http://www.w3.org/2000/svg" width="16.5" height="14.704" viewBox="0 0 16.5 14.704">
  <path id="_290143_cash_money_payment_wallet_icon" data-name="290143_cash_money_payment_wallet_icon" d="M17.5,16.917h0a1.793,1.793,0,0,1-1.793,1.793H2.793A1.793,1.793,0,0,1,1,16.917V6.515A1.435,1.435,0,0,1,2.435,5.08H9.67l2.905-1.052a.355.355,0,0,1,.455.211l.306.841H14.63a1.435,1.435,0,0,1,1.435,1.435v.717h0A1.435,1.435,0,0,1,17.5,8.667ZM2.435,5.8h0a.717.717,0,0,0,0,1.435h1.3s.008-.006.012-.008L7.69,5.8Zm10.43.065-.381-1.049h0l-.736.267h0L9.771,5.8h0L5.808,7.232h7.555Zm2.483.652A.718.718,0,0,0,14.63,5.8H13.6l.522,1.435h1.23Zm.717,1.435H2.435a1.419,1.419,0,0,1-.717-.2v9.166a1.076,1.076,0,0,0,1.076,1.076H15.707a1.076,1.076,0,0,0,1.076-1.076V14.406H15.348a1.435,1.435,0,0,1,0-2.87h1.435V8.667A.718.718,0,0,0,16.065,7.95Zm.717,5.739V12.254H15.348a.717.717,0,0,0,0,1.435Zm-1.435-1.076h.717v.717h-.717Z" transform="translate(-1 -4.006)" fill="#f5be17" fill-rule="evenodd"/>
</svg>
