<?xml version="1.0" standalone="no"?>
<!DOCTYPE svg PUBLIC "-//W3C//DTD SVG 20010904//EN"
 "http://www.w3.org/TR/2001/REC-SVG-20010904/DTD/svg10.dtd">
<svg version="1.0" xmlns="http://www.w3.org/2000/svg"
 width="231.000000pt" height="218.000000pt" viewBox="0 0 231.000000 218.000000"
 preserveAspectRatio="xMidYMid meet">

<g transform="translate(0.000000,218.000000) scale(0.100000,-0.100000)"
fill="#000000" stroke="none">
<path d="M482 2084 c-21 -15 -22 -21 -22 -174 0 -153 1 -159 22 -174 13 -10
44 -16 74 -16 45 0 56 4 73 26 19 24 21 40 21 164 0 124 -2 140 -21 164 -17
22 -28 26 -73 26 -30 0 -61 -6 -74 -16z"/>
<path d="M1170 2080 c-18 -18 -20 -33 -20 -168 0 -135 2 -150 20 -170 29 -30
120 -32 150 -2 18 18 20 33 20 174 0 149 -1 155 -22 170 -34 24 -123 21 -148
-4z"/>
<path d="M97 1952 c-16 -17 -17 -91 -17 -863 0 -464 4 -849 8 -855 21 -32 53
-34 456 -34 l404 0 57 62 56 63 -409 3 c-401 2 -409 3 -428 23 -18 20 -19 48
-19 741 l0 720 24 19 c18 15 39 19 92 19 l69 0 0 60 0 60 -138 0 c-122 0 -141
-2 -155 -18z"/>
<path d="M710 1910 l0 -60 190 0 190 0 0 60 0 60 -190 0 -190 0 0 -60z"/>
<path d="M1403 1913 l2 -58 76 -5 c43 -3 83 -11 93 -19 14 -12 16 -58 16 -463
0 -247 4 -448 8 -446 4 2 34 31 65 65 l57 63 0 443 c0 417 -1 445 -18 460 -15
14 -42 17 -160 17 l-141 0 2 -57z"/>
<path d="M402 1328 c-14 -14 -16 -77 -2 -98 8 -13 76 -15 495 -15 268 0 491 3
496 6 6 3 9 30 7 60 l-3 54 -490 3 c-374 2 -494 -1 -503 -10z"/>
<path d="M2005 1071 c-16 -10 -41 -30 -55 -45 l-24 -27 107 -107 108 -107 41
43 c38 41 40 46 36 93 -6 61 -45 114 -108 147 -54 27 -66 27 -105 3z"/>
<path d="M1635 718 c-360 -366 -348 -352 -380 -447 -15 -46 -28 -106 -29 -135
l-1 -51 45 2 c54 3 177 43 234 77 29 17 486 471 543 539 1 2 -46 51 -105 110
l-108 107 -199 -202z"/>
<path d="M406 824 c-20 -19 -21 -87 -2 -103 9 -8 149 -10 502 -9 l489 3 3 54
c2 37 -1 57 -10 62 -7 5 -228 9 -490 9 -420 0 -478 -2 -492 -16z"/>
</g>
</svg>
