<svg id="Notifications" xmlns="http://www.w3.org/2000/svg" width="17.1" height="21.371" viewBox="0 0 17.1 21.371">
  <path id="Path_467" data-name="Path 467" d="M20.386,20.385H4.713a.712.712,0,0,1-.634-1.033,12.923,12.923,0,0,0,1.346-5.7V11.124a7.124,7.124,0,0,1,14.248,0v2.515a12.923,12.923,0,0,0,1.346,5.7.712.712,0,0,1-.634,1.047ZM5.817,18.96H19.281a14.347,14.347,0,0,1-1.033-5.321V11.124a5.7,5.7,0,1,0-11.4,0v2.515A14.347,14.347,0,0,1,5.817,18.96Z" transform="translate(-4.003 -1.863)" fill="#fff"/>
  <path id="Path_468" data-name="Path 468" d="M14.562,29.274A3.562,3.562,0,0,1,11,25.712a.712.712,0,0,1,1.425,0,2.137,2.137,0,0,0,.627,1.51,2.194,2.194,0,0,0,3.02,0,.715.715,0,1,1,1.012,1.012A3.562,3.562,0,0,1,14.562,29.274Z" transform="translate(-6.016 -7.903)" fill="#fff"/>
  <path id="Path_469" data-name="Path 469" d="M15.712,4.562A.712.712,0,0,1,15,3.85V1.712a.712.712,0,1,1,1.425,0V3.85A.712.712,0,0,1,15.712,4.562Z" transform="translate(-7.166 -1)" fill="#fff"/>
</svg>
