<svg xmlns="http://www.w3.org/2000/svg" width="72" height="65" viewBox="0 0 72 65">
  <g id="Layer_2" data-name="Layer 2" transform="translate(-0.227 -0.37)">
    <g id="Icons" transform="translate(0.06 0.37)">
      <g id="Folder" transform="translate(0)">
        <rect id="Rectangle_841" data-name="Rectangle 841" width="72" height="65" transform="translate(0.168)" fill="none"/>
        <path id="Path_1605" data-name="Path 1605" d="M51.324,36.357h-.057l2.2-25.035a2.677,2.677,0,0,0-2.449-2.895L19.607,5.681a2.689,2.689,0,0,0-2.918,2.426l-.286,3.33H13.886a2.666,2.666,0,0,0-2.666,2.621V56.884a2.666,2.666,0,0,0,2.666,2.666h4.577a2.9,2.9,0,0,0,2.666,1.8h30.2A2.883,2.883,0,0,0,54.2,58.474V39.229a2.883,2.883,0,0,0-2.872-2.872ZM18.978,8.336a.378.378,0,0,1,.412-.343l31.419,2.746a.378.378,0,0,1,.343.412L48.967,36.357H48.1v-22.3a2.666,2.666,0,0,0-2.666-2.666H18.726ZM18.2,44.458v12.8H13.886a.378.378,0,0,1-.378-.378V14.057a.378.378,0,0,1,.378-.378H45.431a.378.378,0,0,1,.378.378v22.3H40.42a4.577,4.577,0,0,0-2.86,1.007l-4.634,3.684a2.288,2.288,0,0,1-1.442.5H21.094a2.872,2.872,0,0,0-2.872,2.872ZM51.907,58.474a.584.584,0,0,1-.584.584H21.094a.584.584,0,0,1-.584-.584V44.423a.584.584,0,0,1,.584-.584H31.483a4.577,4.577,0,0,0,2.872-1.007l4.577-3.684a2.368,2.368,0,0,1,1.442-.5h10.9a.584.584,0,0,1,.584.584Z" transform="translate(4.278 -1.136)" fill="#fff"/>
        <path id="Path_1606" data-name="Path 1606" d="M44.328,48.27H40.014a1.144,1.144,0,1,0,0,2.288h4.314a1.144,1.144,0,1,0,0-2.288Z" transform="translate(9.778 5.006)" fill="#fff"/>
        <path id="Path_1607" data-name="Path 1607" d="M24.844,18.408h6.064a1.144,1.144,0,0,0,0-2.288H24.844a1.144,1.144,0,1,0,0,2.288Z" transform="translate(5.558 0.371)" fill="#fff"/>
        <path id="Path_1608" data-name="Path 1608" d="M19.144,24.078H38.183a1.144,1.144,0,0,0,0-2.288H19.144a1.144,1.144,0,0,0,0,2.288Z" transform="translate(4.643 1.188)" fill="#fff"/>
        <path id="Path_1609" data-name="Path 1609" d="M39.328,27.974a1.144,1.144,0,0,0-1.144-1.144H19.144a1.144,1.144,0,0,0,0,2.288H38.183A1.144,1.144,0,0,0,39.328,27.974Z" transform="translate(4.643 1.915)" fill="#fff"/>
      </g>
    </g>
  </g>
</svg>
