<svg xmlns="http://www.w3.org/2000/svg" width="14.137" height="11.301" viewBox="0 0 14.137 11.301">
  <g id="eye-off-outline" transform="translate(0 0)">
    <path id="Path_1500" data-name="Path 1500" d="M75.119,75.591a.469.469,0,0,1-.333-.138L64.419,65.086a.471.471,0,0,1,.666-.666L75.453,74.786a.471.471,0,0,1-.333.8Z" transform="translate(-62.867 -64.29)" fill="#c5c5c5"/>
    <path id="Path_1501" data-name="Path 1501" d="M23.039,167.362a6.372,6.372,0,0,1-3.5-1.075,8.877,8.877,0,0,1-2.612-2.68v0a10.716,10.716,0,0,1,1.921-2.127.059.059,0,0,0,0-.087l-.587-.586a.059.059,0,0,0-.08,0,11.679,11.679,0,0,0-2.035,2.265.94.94,0,0,0-.019,1.047,9.84,9.84,0,0,0,2.895,2.964,7.3,7.3,0,0,0,4.015,1.226,7.043,7.043,0,0,0,2.232-.371.059.059,0,0,0,.023-.1l-.636-.636a.118.118,0,0,0-.113-.029,6.032,6.032,0,0,1-1.507.191Z" transform="translate(-15.98 -157.946)" fill="#c5c5c5"/>
    <path id="Path_1502" data-name="Path 1502" d="M188.6,100.2a9.982,9.982,0,0,0-2.924-2.961,7.4,7.4,0,0,0-4-1.239,6.7,6.7,0,0,0-2.206.378.059.059,0,0,0-.022.1l.635.635a.118.118,0,0,0,.114.029,5.677,5.677,0,0,1,1.479-.2,6.369,6.369,0,0,1,3.492,1.09,9.033,9.033,0,0,1,2.644,2.68,0,0,0,0,1,0,0,9.151,9.151,0,0,1-1.888,2.142.059.059,0,0,0,0,.087l.586.586a.059.059,0,0,0,.08,0,10.116,10.116,0,0,0,2.022-2.311A.948.948,0,0,0,188.6,100.2Z" transform="translate(-174.613 -95.066)" fill="#c5c5c5"/>
    <path id="Path_1503" data-name="Path 1503" d="M233.713,160a2.824,2.824,0,0,0-.629.071.059.059,0,0,0-.029.1l3.316,3.315a.059.059,0,0,0,.1-.029A2.827,2.827,0,0,0,233.713,160Z" transform="translate(-226.644 -157.181)" fill="#c5c5c5"/>
    <path id="Path_1504" data-name="Path 1504" d="M160.149,233.084a.059.059,0,0,0-.1.029,2.827,2.827,0,0,0,3.387,3.387.059.059,0,0,0,.029-.1Z" transform="translate(-155.737 -228.096)" fill="#c5c5c5"/>
  </g>
</svg>
