<svg xmlns="http://www.w3.org/2000/svg" xmlns:xlink="http://www.w3.org/1999/xlink" width="31" height="37" viewBox="0 0 31 37">
  <defs>
    <linearGradient id="linear-gradient" x1="0.5" y1="-0.071" x2="0.5" y2="0.939" gradientUnits="objectBoundingBox">
      <stop offset="0" stop-color="#f1f5f9"/>
      <stop offset="1" stop-color="#d8e5f4"/>
    </linearGradient>
  </defs>
  <g id="icons" transform="translate(-10 -5.5)">
    <g id="Layer_3" data-name="Layer 3">
      <path id="Path_1580" data-name="Path 1580" d="M33,40.5H15a5,5,0,0,1-5-5v-25a5,5,0,0,1,5-5H27.52a6,6,0,0,1,4.27,1.77l4.44,4.44A6,6,0,0,1,38,16V35.5a5,5,0,0,1-5,5Z" fill="#e1eaf6"/>
      <path id="Path_1581" data-name="Path 1581" d="M33,42.5H15a5,5,0,0,1-5-5v-25a5,5,0,0,1,5-5H27.52a6,6,0,0,1,4.27,1.77l4.44,4.44A6,6,0,0,1,38,18V37.5A5,5,0,0,1,33,42.5Z" fill="url(#linear-gradient)"/>
      <path id="Path_1582" data-name="Path 1582" d="M14.91,33.89a1.31,1.31,0,0,1-.39-1h0a4.06,4.06,0,0,1,1.67-2.71h0a13.49,13.49,0,0,1,4.11-2.37h0a17.8,17.8,0,0,0,.8-4.55h0A12.58,12.58,0,0,1,18,19.1h0a7.48,7.48,0,0,1-.47-2.39h0a2.71,2.71,0,0,1,.35-1.43h0A1.36,1.36,0,0,1,19,14.6h0c1.22.08,2.08,1.2,2.77,3.08h0a14.94,14.94,0,0,1,.63,4.6h0v.46h0a25.94,25.94,0,0,0,4.65,3.32h0c1.09-.23,2.15-.44,3.08-.65h0a9.6,9.6,0,0,1,2.14-.27h0a3.88,3.88,0,0,1,1.87.39h0A1.49,1.49,0,0,1,35,26.81h0c-.11,1.31-1.45,2-3.27,2h0a8.1,8.1,0,0,1-1.61-.17h0a14.14,14.14,0,0,1-3.22-1.19h0a46.633,46.633,0,0,0-5.37,1.37h0l-.19.07h0A8.28,8.28,0,0,1,16.86,34h0a2.72,2.72,0,0,1-1,.2h0a1.39,1.39,0,0,1-.95-.35Zm1-1a1.49,1.49,0,0,0,.52-.11h0a6.1,6.1,0,0,0,3.2-3.24h0a11,11,0,0,0-2.55,1.63h0a3.12,3.12,0,0,0-1.22,1.72h.05Zm14.5-5.59a7,7,0,0,0,1.35.14h0a3.23,3.23,0,0,0,1.62-.34h0c.33-.18.35-.32.34-.33h0a.41.41,0,0,0-.15-.13h0a2.62,2.62,0,0,0-1.24-.22h0a8.47,8.47,0,0,0-1.85.23h0l-1.37.3h0a8.37,8.37,0,0,0,1.31.36Zm-8.57,0c1.06-.32,2.21-.61,3.37-.87h0a26.22,26.22,0,0,1-2.86-2.06h0a19.53,19.53,0,0,1-.51,2.93ZM19,15.91l-.06.06h0a1.4,1.4,0,0,0-.15.74h0a6.08,6.08,0,0,0,.4,2h0a8.12,8.12,0,0,0,1.89,2.78h0a12.47,12.47,0,0,0-.55-3.34h0a5.39,5.39,0,0,0-.94-1.78h0a1.09,1.09,0,0,0-.58-.42h0Z" fill="#eff4f9"/>
      <path id="Path_1583" data-name="Path 1583" d="M14.91,32.89a1.31,1.31,0,0,1-.39-.95h0a4.06,4.06,0,0,1,1.67-2.71h0a13.49,13.49,0,0,1,4.11-2.37h0a17.8,17.8,0,0,0,.8-4.55h0A12.58,12.58,0,0,1,18,18.1h0a7.48,7.48,0,0,1-.47-2.39h0a2.71,2.71,0,0,1,.35-1.43h0A1.36,1.36,0,0,1,19,13.6h0c1.22.08,2.08,1.2,2.77,3.08h0a14.94,14.94,0,0,1,.63,4.6h0v.46h0a25.94,25.94,0,0,0,4.65,3.32h0c1.09-.23,2.15-.44,3.08-.65h0a9.6,9.6,0,0,1,2.14-.27h0a3.88,3.88,0,0,1,1.87.39h0A1.49,1.49,0,0,1,35,25.81h0c-.11,1.31-1.45,2-3.27,2h0a8.1,8.1,0,0,1-1.61-.17h0a14.14,14.14,0,0,1-3.22-1.19h0a46.629,46.629,0,0,0-5.37,1.37h0l-.19.07h0A8.28,8.28,0,0,1,16.86,33h0a2.72,2.72,0,0,1-1,.2h0a1.39,1.39,0,0,1-.95-.35Zm1-1a1.49,1.49,0,0,0,.52-.11h0a6.1,6.1,0,0,0,3.2-3.24h0a11,11,0,0,0-2.55,1.63h0a3.12,3.12,0,0,0-1.22,1.72h.05Zm14.5-5.59a7,7,0,0,0,1.35.14h0a3.23,3.23,0,0,0,1.62-.34h0c.33-.18.35-.32.34-.33h0a.41.41,0,0,0-.15-.13h0a2.62,2.62,0,0,0-1.24-.22h0a8.47,8.47,0,0,0-1.85.23h0l-1.37.3h0a8.37,8.37,0,0,0,1.31.36Zm-8.57,0c1.06-.32,2.21-.61,3.37-.87h0a26.22,26.22,0,0,1-2.86-2.06h0a19.53,19.53,0,0,1-.51,2.93ZM19,14.91l-.06.06h0a1.4,1.4,0,0,0-.15.74h0a6.08,6.08,0,0,0,.4,2h0a8.12,8.12,0,0,0,1.89,2.78h0a12.47,12.47,0,0,0-.55-3.34h0a5.39,5.39,0,0,0-.94-1.78h0a1.09,1.09,0,0,0-.58-.42h0Z" fill="#a7c1db"/>
      <path id="Path_1584" data-name="Path 1584" d="M36,16H30.83a2.33,2.33,0,0,1-2.33-2.33V9.5a.5.5,0,0,1,1,0v4.17A1.33,1.33,0,0,0,30.83,15H36a.5.5,0,0,1,0,1Z" fill="#a7c1db"/>
      <rect id="Rectangle_838" data-name="Rectangle 838" width="17.93" height="8.77" rx="1.91" transform="translate(23.07 31.34)" fill="#ec5d24"/>
      <path id="Path_1585" data-name="Path 1585" d="M27.87,36H27v1.3a.6.6,0,0,1-.13.42.471.471,0,0,1-.67,0,.62.62,0,0,1-.13-.42V33.8a.57.57,0,0,1,.14-.43.65.65,0,0,1,.45-.14h1.2a2.82,2.82,0,0,1,.81.09,1.11,1.11,0,0,1,.49.26,1.17,1.17,0,0,1,.31.44,1.59,1.59,0,0,1,.1.59,1.29,1.29,0,0,1-.43,1.06,1.9,1.9,0,0,1-1.27.33Zm-.23-2.11H27v1.4h.63a2.15,2.15,0,0,0,.55-.06.65.65,0,0,0,.34-.23.71.71,0,0,0,.11-.41.67.67,0,0,0-.18-.49,1.16,1.16,0,0,0-.81-.17Z" fill="#fff"/>
      <path id="Path_1586" data-name="Path 1586" d="M30.94,33.23h1.21a3.18,3.18,0,0,1,.81.09,1.56,1.56,0,0,1,.62.33,2.35,2.35,0,0,1,.71,1.87,3.54,3.54,0,0,1-.07.75,2.39,2.39,0,0,1-.22.62,2,2,0,0,1-.39.49,1.45,1.45,0,0,1-.4.26,1.5,1.5,0,0,1-.47.14,3.27,3.27,0,0,1-.57,0H31a.81.81,0,0,1-.39-.08.33.33,0,0,1-.16-.22,1.19,1.19,0,0,1,0-.36V33.8a.58.58,0,0,1,.13-.43A.61.61,0,0,1,30.94,33.23Zm.36.74v3.12h1.07a1,1,0,0,0,.27-.06.72.72,0,0,0,.24-.14,1.71,1.71,0,0,0,.47-1.36,2,2,0,0,0-.21-1,.9.9,0,0,0-.5-.43,2.55,2.55,0,0,0-.73-.09Z" fill="#fff"/>
      <path id="Path_1587" data-name="Path 1587" d="M37.85,34H36v1.18h1.53a.49.49,0,0,1,.32.09.35.35,0,0,1,0,.51.49.49,0,0,1-.32.09H36v1.52a.57.57,0,0,1-.13.42.471.471,0,0,1-.67,0,.57.57,0,0,1-.13-.42V33.8a.73.73,0,0,1,.06-.32.35.35,0,0,1,.19-.19.73.73,0,0,1,.32-.06h2.19a.5.5,0,0,1,.33.1.31.31,0,0,1,.11.26.3.3,0,0,1-.11.26.45.45,0,0,1-.31.15Z" fill="#fff"/>
    </g>
  </g>
</svg>
