<svg id="Layer_19" data-name="Layer 19" xmlns="http://www.w3.org/2000/svg" width="13.086" height="16.357" viewBox="0 0 13.086 16.357">
  <path id="Path_1541" data-name="Path 1541" d="M12.362,9.724a4.362,4.362,0,1,1,4.362-4.362A4.362,4.362,0,0,1,12.362,9.724Zm0-7.633a3.271,3.271,0,1,0,3.271,3.271A3.271,3.271,0,0,0,12.362,2.09Z" transform="translate(-5.819 -1)" fill="#101820"/>
  <path id="Path_1542" data-name="Path 1542" d="M14.36,25.065H6.726A2.726,2.726,0,0,1,4,22.339V20.158a.545.545,0,0,1,.267-.469l2.726-1.636a.545.545,0,0,1,.545.938L5.09,20.468v1.87a1.636,1.636,0,0,0,1.636,1.636H14.36A1.636,1.636,0,0,0,16,22.339v-1.87l-2.459-1.478a.545.545,0,1,1,.545-.938l2.726,1.636a.545.545,0,0,1,.278.469v2.181a2.726,2.726,0,0,1-2.726,2.726Z" transform="translate(-4 -8.707)" fill="#101820"/>
</svg>
