<?xml version="1.0" encoding="utf-8"?>
<!-- Generator: Adobe Illustrator 26.5.0, SVG Export Plug-In . SVG Version: 6.00 Build 0)  -->
<svg version="1.1" id="Layer_1" xmlns="http://www.w3.org/2000/svg" xmlns:xlink="http://www.w3.org/1999/xlink" x="0px" y="0px"
	 viewBox="0 0 500 500" style="enable-background:new 0 0 500 500;" xml:space="preserve">
<style type="text/css">
	.st0{fill:none;stroke:#000000;stroke-width:10;stroke-linecap:round;stroke-linejoin:round;stroke-miterlimit:2.6131;}
</style>
<g>
	<line class="st0" x1="363.5" y1="82.7" x2="397.1" y2="82.7"/>
	<path class="st0" d="M397.1,82.7c12,0,21.7,9.8,21.7,21.9"/>
	<line class="st0" x1="418.8" y1="104.6" x2="418.8" y2="453"/>
	<path class="st0" d="M418.8,453c0,12.1-9.7,22-21.7,22"/>
	<line class="st0" x1="397.1" y1="475" x2="102.9" y2="475"/>
	<path class="st0" d="M102.9,475c-12,0-21.7-9.8-21.7-22"/>
	<line class="st0" x1="81.2" y1="453" x2="81.2" y2="104.6"/>
	<path class="st0" d="M81.2,104.6c0-12.1,9.7-21.9,21.7-21.9"/>
	<line class="st0" x1="102.9" y1="82.7" x2="131.9" y2="82.7"/>
	<polyline class="st0" points="342.9,50.6 287,50.6 287,45.9 	"/>
	<path class="st0" d="M287,45.9c0-11.5-9.2-20.9-20.6-20.9"/>
	<line class="st0" x1="266.4" y1="25" x2="233.6" y2="25"/>
	<path class="st0" d="M233.6,25c-11.4,0-20.6,9.3-20.6,20.9"/>
	<polyline class="st0" points="213,45.9 213,50.6 157.2,50.6 	"/>
	<path class="st0" d="M157.2,50.6c-11.4,0-20.6,9.3-20.6,20.9"/>
	<polyline class="st0" points="136.6,71.5 136.6,115.9 363.5,115.9 363.5,71.5 	"/>
	<path class="st0" d="M363.5,71.5c0-11.5-9.2-20.9-20.6-20.9"/>
	<g>
		<line class="st0" x1="137.6" y1="221.2" x2="156.2" y2="238.5"/>
		<line class="st0" x1="190.4" y1="200.7" x2="156.2" y2="238.5"/>
	</g>
	<line class="st0" x1="222.9" y1="223.5" x2="362.4" y2="223.5"/>
	<line class="st0" x1="222.9" y1="392.6" x2="362.4" y2="392.6"/>
	<line class="st0" x1="222.9" y1="309.2" x2="362.4" y2="309.2"/>
</g>
</svg>
