<svg id="Layer_3" data-name="Layer 3" xmlns="http://www.w3.org/2000/svg" width="26.045" height="24.079" viewBox="0 0 26.045 24.079">
  <path id="Path_454" data-name="Path 454" d="M9.68,19.361a8.68,8.68,0,1,1,8.68-8.68A8.68,8.68,0,0,1,9.68,19.361Zm0-15.625a6.944,6.944,0,1,0,6.944,6.944A6.944,6.944,0,0,0,9.68,3.736Z" transform="translate(-1 -2)" fill="#c3c6d1"/>
  <path id="Path_455" data-name="Path 455" d="M26.795,28.27a2.6,2.6,0,0,1-1.675-.608L19.8,23.2a2.606,2.606,0,1,1,3.351-3.993l5.321,4.462a2.6,2.6,0,0,1-1.675,4.6Zm-5.321-7.934H21.4a.868.868,0,0,0-.477,1.536l5.321,4.462a.866.866,0,1,0,1.111-1.328l-5.321-4.47A.868.868,0,0,0,21.474,20.336Z" transform="translate(-3.358 -4.19)" fill="#c3c6d1"/>
  <path id="Path_456" data-name="Path 456" d="M19.556,20.479a.868.868,0,0,1-.556-.2l-2.049-1.693a.869.869,0,1,1,1.111-1.337l2.031,1.693a.868.868,0,0,1-.538,1.536Z" transform="translate(-3.064 -3.986)" fill="#c3c6d1"/>
</svg>
