<?xml version="1.0" encoding="utf-8"?>
<!-- Generator: Adobe Illustrator 26.2.1, SVG Export Plug-In . SVG Version: 6.00 Build 0)  -->
<svg version="1.1" id="Layer_1" xmlns="http://www.w3.org/2000/svg" xmlns:xlink="http://www.w3.org/1999/xlink" x="0px" y="0px"
	 viewBox="0 0 1440 720" style="enable-background:new 0 0 1440 720;" xml:space="preserve">
<style type="text/css">
	.st0{fill:#F5BE17;}
</style>
<g>
	<path d="M225.2,460c-11.4-4.9-20.4-11.9-27-21c-6.6-9.2-10-20-10.2-32.4h43.8c0.6,8.4,3.6,15,8.9,19.9c5.4,4.9,12.7,7.3,22.1,7.3
		c9.5,0,17-2.3,22.5-6.9c5.4-4.6,8.2-10.6,8.2-18c0-6-1.9-11-5.5-14.9c-3.7-3.9-8.3-7-13.9-9.2c-5.5-2.2-13.2-4.7-22.9-7.4
		c-13.2-3.9-24-7.7-32.3-11.5c-8.3-3.8-15.4-9.5-21.3-17.2c-5.9-7.7-8.9-18-8.9-30.8c0-12.1,3-22.6,9.1-31.5
		c6-9,14.5-15.8,25.4-20.6c10.9-4.8,23.4-7.2,37.4-7.2c21,0,38.1,5.1,51.3,15.3c13.1,10.2,20.4,24.5,21.8,42.8h-45
		c-0.4-7-3.4-12.8-8.9-17.4c-5.5-4.6-12.9-6.9-22.1-6.9c-8,0-14.4,2-19.1,6.1c-4.8,4.1-7.2,10-7.2,17.8c0,5.5,1.8,10,5.4,13.6
		c3.6,3.6,8.1,6.5,13.4,8.8c5.4,2.2,12.9,4.8,22.6,7.7c13.2,3.9,24,7.8,32.4,11.7c8.4,3.9,15.6,9.7,21.6,17.5c6,7.8,9.1,18,9.1,30.7
		c0,10.9-2.8,21-8.5,30.4c-5.6,9.3-13.9,16.8-24.8,22.3c-10.9,5.5-23.9,8.3-38.8,8.3C249.4,467.3,236.6,464.9,225.2,460z"/>
	<path d="M373.8,277.3c-4.8-4.6-7.2-10.3-7.2-17.1c0-6.8,2.4-12.5,7.2-17.1c4.8-4.6,10.8-6.9,18-6.9c7.2,0,13.2,2.3,18,6.9
		c4.8,4.6,7.2,10.3,7.2,17.1c0,6.8-2.4,12.5-7.2,17.1c-4.8,4.6-10.8,6.9-18,6.9C384.6,284.2,378.6,281.9,373.8,277.3z M411.9,303.5
		v161.8H371V303.5H411.9z"/>
	<path d="M526.4,337h-28.3v128.2h-41.5V337h-18.4v-33.6h18.4v-8.2c0-19.9,5.6-34.5,16.9-43.8c11.3-9.3,28.3-13.7,51.1-13.1v34.5
		c-9.9-0.2-16.8,1.5-20.7,5c-3.9,3.5-5.8,9.8-5.8,19v6.7h28.3V337z"/>
	<path d="M600.6,337v78.3c0,5.5,1.3,9.4,3.9,11.8c2.6,2.4,7.1,3.7,13.3,3.7h19v34.5h-25.7c-34.5,0-51.7-16.7-51.7-50.2v-78h-19.3
		v-33.6h19.3v-40h41.2v40h36.2V337H600.6z"/>
	<path d="M815.6,396.6H697.3c1,11.7,5.1,20.8,12.3,27.5c7.2,6.6,16.1,9.9,26.6,9.9c15.2,0,26-6.5,32.4-19.6h44.1
		c-4.7,15.6-13.6,28.4-26.9,38.4c-13.2,10-29.5,15-48.8,15c-15.6,0-29.5-3.5-41.9-10.4c-12.4-6.9-22-16.7-28.9-29.4
		c-6.9-12.7-10.4-27.3-10.4-43.8c0-16.7,3.4-31.4,10.2-44.1c6.8-12.7,16.4-22.4,28.6-29.2c12.3-6.8,26.4-10.2,42.3-10.2
		c15.4,0,29.2,3.3,41.3,9.9c12.2,6.6,21.6,16,28.3,28.2c6.7,12.2,10.1,26.1,10.1,41.9C816.7,386.7,816.3,392,815.6,396.6z
		 M774.4,369.2c-0.2-10.5-4-18.9-11.4-25.3c-7.4-6.3-16.5-9.5-27.2-9.5c-10.1,0-18.6,3.1-25.6,9.2c-6.9,6.1-11.1,14.7-12.7,25.6
		H774.4z"/>
	<path d="M845.8,340.3c6.5-12.7,15.4-22.4,26.7-29.2c11.3-6.8,23.8-10.2,37.7-10.2c10.5,0,20.5,2.3,30.1,6.9
		c9.5,4.6,17.1,10.7,22.8,18.3v-76.8h41.5v216.1h-41.5v-23.9c-5.1,8-12.2,14.4-21.3,19.3c-9.2,4.9-19.8,7.3-31.8,7.3
		c-13.6,0-26.1-3.5-37.4-10.5c-11.3-7-20.2-16.9-26.7-29.6c-6.5-12.8-9.8-27.4-9.8-44C836,367.4,839.3,352.9,845.8,340.3z
		 M957.5,358.8c-3.9-7.1-9.2-12.6-15.8-16.4c-6.6-3.8-13.7-5.7-21.3-5.7s-14.6,1.9-21,5.5c-6.4,3.7-11.6,9.1-15.6,16.2
		c-4,7.1-6,15.5-6,25.3c0,9.7,2,18.3,6,25.6c4,7.3,9.2,12.9,15.8,16.8c6.5,3.9,13.5,5.8,20.9,5.8c7.6,0,14.7-1.9,21.3-5.7
		c6.6-3.8,11.9-9.2,15.8-16.4c3.9-7.1,5.8-15.6,5.8-25.6C963.4,374.4,961.4,365.9,957.5,358.8z"/>
</g>
<path class="st0" d="M1047.9,253.2c24,0,48.1-0.1,72.1,0c48.9,70.7,98,141.4,146.9,212.1c-24-0.1-48.1,0.1-72.1-0.1
	C1145.9,394.5,1096.9,323.9,1047.9,253.2z"/>
<path class="st0" d="M1224.6,321.4c-15.6-22.8-31.7-45.4-47.1-68.3c31.4,0.2,62.9,0,94.4,0.1
	C1256.1,275.9,1240.3,298.6,1224.6,321.4z"/>
<path class="st0" d="M1063,465.3c15.8-22.7,31.5-45.5,47.2-68.2c15.7,22.7,31.5,45.5,47.2,68.2C1126,465.3,1094.5,465.3,1063,465.3z
	"/>
</svg>
