<svg xmlns="http://www.w3.org/2000/svg" width="15.5" height="15.5" viewBox="0 0 15.5 15.5" fill="#f5be17">
  <g id="Layer_20" data-name="Layer 20" transform="translate(-1 -1)">
    <path id="Path_2322" data-name="Path 2322" d="M13.1,16.2a3.1,3.1,0,1,1,3.1-3.1A3.1,3.1,0,0,1,13.1,16.2Zm0-5.167A2.067,2.067,0,1,0,15.167,13.1,2.067,2.067,0,0,0,13.1,11.033Z" transform="translate(-4.35 -4.35)" fill="#f5be17"/>
    <path id="Path_2323" data-name="Path 2323" d="M14.233,26.642H9.067A2.067,2.067,0,0,1,7,24.576V23.258a.517.517,0,0,1,.326-.475l1.881-.754a.517.517,0,1,1,.377.961l-1.55.62v.966a1.033,1.033,0,0,0,1.033,1.033h5.167a1.033,1.033,0,0,0,1.033-1.033V23.61l-1.55-.62a.517.517,0,1,1,.382-.961l1.881.754a.517.517,0,0,1,.326.475v1.318a2.067,2.067,0,0,1-2.072,2.067Z" transform="translate(-2.9 -10.142)" fill="#f5be17"/>
    <path id="Path_2324" data-name="Path 2324" d="M6.583,6.167A2.583,2.583,0,1,1,9.167,3.583,2.583,2.583,0,0,1,6.583,6.167Zm0-4.133a1.55,1.55,0,1,0,1.55,1.55A1.55,1.55,0,0,0,6.583,2.033Z" transform="translate(-1.45)" fill="#f5be17"/>
    <path id="Path_2325" data-name="Path 2325" d="M4.617,15.523H3.067A2.067,2.067,0,0,1,1,13.456v-.9a.517.517,0,0,1,.325-.481l1.648-.646a.511.511,0,1,1,.377.951L2.033,12.9v.553A1.033,1.033,0,0,0,3.067,14.49h1.55a.517.517,0,0,1,0,1.033Z" transform="translate(0 -5.021)" fill="#f5be17"/>
    <path id="Path_2326" data-name="Path 2326" d="M20.583,6.167a2.583,2.583,0,1,1,2.583-2.583A2.583,2.583,0,0,1,20.583,6.167Zm0-4.133a1.55,1.55,0,1,0,1.55,1.55A1.55,1.55,0,0,0,20.583,2.033Z" transform="translate(-8.217)" fill="#f5be17"/>
    <path id="Path_2327" data-name="Path 2327" d="M25.067,15.52h-1.55a.517.517,0,1,1,0-1.033h1.55A1.033,1.033,0,0,0,26.1,13.453V12.9l-1.317-.517a.519.519,0,0,1,.377-.966l1.648.646a.517.517,0,0,1,.325.481v.9a2.067,2.067,0,0,1-2.067,2.072Z" transform="translate(-10.633 -5.019)" fill="#f5be17"/>
  </g>
</svg>
