<svg id="Group_373" data-name="Group 373" xmlns="http://www.w3.org/2000/svg" width="53" height="54.88" viewBox="0 0 53 54.88">
  <g id="Group_363" data-name="Group 363">
    <path id="Path_557" data-name="Path 557" d="M25.07,18.34a3.571,3.571,0,0,1,2.955-2.332A3.512,3.512,0,0,1,31.541,18.1a8.487,8.487,0,0,1,.349,3.45h7.066a14.977,14.977,0,0,1,.115-2.781,3.68,3.68,0,0,1,1.888-2.409,3.4,3.4,0,0,1,2.979-.041,3.7,3.7,0,0,1,2.047,2.857c.075.788.021,1.583.038,2.373h7.066a12.238,12.238,0,0,1,.166-2.969,3.633,3.633,0,0,1,2.383-2.439,3.41,3.41,0,0,1,2.664.3,3.727,3.727,0,0,1,1.842,3.019c.028.7,0,1.395.012,2.092q2.153,0,4.307,0a4.386,4.386,0,0,1,1.922.409,4.672,4.672,0,0,1,2.6,4.224q.01,11.923,0,23.844a1.313,1.313,0,0,1-.162.759.861.861,0,0,1-1.234.226.987.987,0,0,1-.372-.865q0-7.816,0-15.632H17.758q0,14.357,0,28.712A2.735,2.735,0,0,0,20.408,66q12.312.009,24.625,0a.921.921,0,0,1,.98,1.043.911.911,0,0,1-.974.808q-12.259,0-24.516,0a4.332,4.332,0,0,1-3.063-1.189,4.76,4.76,0,0,1-1.468-3.552V26.294a4.786,4.786,0,0,1,1.185-3.267A4.326,4.326,0,0,1,20.4,21.55c1.474-.006,2.947,0,4.42,0A9.933,9.933,0,0,1,25.07,18.34Zm2.979-.47a1.829,1.829,0,0,0-1.455,1.808c-.01,1.74,0,3.481-.006,5.222a2.762,2.762,0,0,0,.124,1.025,1.775,1.775,0,0,0,1.882,1.16A1.834,1.834,0,0,0,30.12,25.26q.008-2.787,0-5.574A1.805,1.805,0,0,0,28.049,17.87Zm14.132,0a1.834,1.834,0,0,0-1.456,1.814c-.008,1.739,0,3.478,0,5.216a2.72,2.72,0,0,0,.126,1.029,1.773,1.773,0,0,0,1.875,1.156,1.837,1.837,0,0,0,1.532-1.834q.007-2.78,0-5.561A1.806,1.806,0,0,0,42.182,17.87Zm14.137,0a1.833,1.833,0,0,0-1.461,1.816q-.007,2.787,0,5.574a1.766,1.766,0,1,0,3.528,0q.008-2.782,0-5.564A1.806,1.806,0,0,0,56.318,17.869ZM18,25.034a3.231,3.231,0,0,0-.24,1.381c0,2.081,0,4.163,0,6.246H67.221c-.006-2.2.011-4.406-.008-6.608a2.722,2.722,0,0,0-2.524-2.646c-1.51-.017-3.023,0-4.535-.007-.02.815.046,1.635-.049,2.445a3.619,3.619,0,0,1-3.157,3.093,3.529,3.529,0,0,1-3.55-2.168,8.925,8.925,0,0,1-.311-3.37H46.023c-.013.765.03,1.532-.029,2.294a3.675,3.675,0,0,1-2.439,3.087,3.483,3.483,0,0,1-4.171-1.767c-.607-1.1-.386-2.407-.427-3.615H31.89c-.008.7.017,1.4-.012,2.1a3.7,3.7,0,0,1-2.309,3.232,3.48,3.48,0,0,1-4.32-1.72c-.605-1.1-.384-2.4-.425-3.61-1.474,0-2.947,0-4.42,0A2.658,2.658,0,0,0,18,25.034Z" transform="translate(-15.99 -15.989)" fill="#fff"/>
  </g>
  <g id="Group_364" data-name="Group 364" transform="translate(6.039 23.393)">
    <path id="Path_558" data-name="Path 558" d="M81.229,215.983c1.094-.053,2.192-.012,3.288-.022a1.516,1.516,0,0,1,1.5,1.5c0,.792.012,1.585,0,2.376a1.511,1.511,0,0,1-1.5,1.407q-1.515.007-3.029,0a1.513,1.513,0,0,1-1.5-1.4c-.017-.793-.007-1.586-.006-2.379A1.509,1.509,0,0,1,81.229,215.983Zm.26,1.486v2.265h3.02V217.47Z" transform="translate(-79.978 -215.956)" fill="#fff"/>
  </g>
  <g id="Group_365" data-name="Group 365" transform="translate(18.055 23.393)">
    <path id="Path_559" data-name="Path 559" d="M177.2,215.983c1.092-.053,2.188-.012,3.281-.022a1.516,1.516,0,0,1,1.5,1.5q.008,1.138,0,2.276a1.52,1.52,0,0,1-.953,1.4,2.434,2.434,0,0,1-.933.109c-.882-.008-1.764,0-2.646,0A1.519,1.519,0,0,1,175.973,220c-.046-.905-.03-1.816-.009-2.721A1.5,1.5,0,0,1,177.2,215.983Zm.257,1.486v2.265h3.02V217.47Z" transform="translate(-175.943 -215.956)" fill="#fff"/>
  </g>
  <g id="Group_366" data-name="Group 366" transform="translate(28.892 23.392)">
    <path id="Path_560" data-name="Path 560" d="M273.2,215.98c1.093-.054,2.19-.012,3.284-.022a1.512,1.512,0,0,1,1.5,1.409c.016.788.007,1.577,0,2.365a1.516,1.516,0,0,1-1.505,1.507q-1.513.006-3.027,0a1.521,1.521,0,0,1-1.482-1.248c-.045-.9-.029-1.813-.008-2.717A1.5,1.5,0,0,1,273.2,215.98Zm.26,1.486v2.265h3.02v-2.265Z" transform="translate(-271.942 -215.951)" fill="#fff"/>
  </g>
  <g id="Group_367" data-name="Group 367" transform="translate(40.917 23.392)">
    <path id="Path_561" data-name="Path 561" d="M369.229,215.982c1.1-.055,2.2-.013,3.293-.023a1.516,1.516,0,0,1,1.5,1.5c0,.789.012,1.58,0,2.369a1.51,1.51,0,0,1-1.5,1.41q-1.515.007-3.027,0a1.513,1.513,0,0,1-1.5-1.406c-.016-.791-.007-1.584-.006-2.375A1.509,1.509,0,0,1,369.229,215.982Zm.264,1.485v2.265h3.02v-2.265Z" transform="translate(-367.982 -215.953)" fill="#fff"/>
  </g>
  <g id="Group_368" data-name="Group 368" transform="translate(6.038 31.815)">
    <path id="Path_562" data-name="Path 562" d="M81.224,287.983c1.095-.053,2.193-.012,3.289-.022a1.516,1.516,0,0,1,1.5,1.5c0,.793.012,1.585-.006,2.377a1.509,1.509,0,0,1-1.492,1.406q-1.519.007-3.037,0a1.513,1.513,0,0,1-1.495-1.4c-.021-.6,0-1.2-.008-1.8a2.789,2.789,0,0,1,.135-1.191A1.508,1.508,0,0,1,81.224,287.983Zm.26,1.486v2.265H84.5V289.47Z" transform="translate(-79.972 -287.956)" fill="#fff"/>
  </g>
  <g id="Group_369" data-name="Group 369" transform="translate(18.057 31.815)">
    <path id="Path_563" data-name="Path 563" d="M177.208,287.982c1.094-.055,2.192-.013,3.289-.023a1.515,1.515,0,0,1,1.5,1.5c0,.791.012,1.582,0,2.372a1.511,1.511,0,0,1-1.5,1.41q-1.513.007-3.027,0a1.517,1.517,0,0,1-1.492-1.318c-.025-.881-.025-1.766,0-2.646A1.5,1.5,0,0,1,177.208,287.982Zm.263,1.485v2.265h3.02v-2.265Z" transform="translate(-175.958 -287.953)" fill="#fff"/>
  </g>
  <path id="Path_564" data-name="Path 564" d="M272.864,288.116a2.458,2.458,0,0,1,1.092-.137c.854.008,1.708-.009,2.562.006a.75.75,0,0,1,0,1.5c-1.008.013-2.017,0-3.025,0v2.241a.9.9,0,0,1,.652.4.758.758,0,0,1-.466,1.106,1.494,1.494,0,0,1-1.688-1.379c-.017-.794-.007-1.588-.006-2.381A1.506,1.506,0,0,1,272.864,288.116Z" transform="translate(-243.172 -256.161)" fill="#fff"/>
  <g id="Group_370" data-name="Group 370" transform="translate(33.372 35.257)">
    <path id="Path_565" data-name="Path 565" d="M296.675,288.1a9.809,9.809,0,1,1-4.485,1.725A9.779,9.779,0,0,1,296.675,288.1Zm.088,1.509a8.3,8.3,0,1,0,5.126.98A8.329,8.329,0,0,0,296.763,289.6Z" transform="translate(-288.038 -288.023)" fill="#fff"/>
  </g>
  <path id="Path_566" data-name="Path 566" d="M343.733,356.692c.2-.2.411-.457.719-.478a.758.758,0,0,1,.83.737.836.836,0,0,1-.29.62q-3.022,3.02-6.041,6.041c-.209.2-.411.462-.721.5a.822.822,0,0,1-.726-.306c-1.034-1.046-2.083-2.076-3.114-3.124a.751.751,0,0,1,.067-1.092.761.761,0,0,1,1.044.077c.88.874,1.753,1.753,2.631,2.629Q340.934,359.493,343.733,356.692Z" transform="translate(-296.459 -314.517)" fill="#fff"/>
  <g id="Group_371" data-name="Group 371" transform="translate(6.038 40.238)">
    <path id="Path_567" data-name="Path 567" d="M81.226,359.983c1.095-.053,2.194-.012,3.291-.022a1.516,1.516,0,0,1,1.5,1.5q.008,1.137,0,2.273a1.519,1.519,0,0,1-.949,1.4,2.46,2.46,0,0,1-.938.109c-.882-.008-1.765,0-2.647,0a1.513,1.513,0,0,1-1.495-1.407c-.021-.6,0-1.2-.008-1.8a2.759,2.759,0,0,1,.138-1.191A1.508,1.508,0,0,1,81.226,359.983Zm.261,1.486v2.265h3.02V361.47Z" transform="translate(-79.975 -359.956)" fill="#fff"/>
  </g>
  <g id="Group_372" data-name="Group 372" transform="translate(18.059 40.238)">
    <path id="Path_568" data-name="Path 568" d="M177.224,359.986c1.062-.057,2.128-.008,3.192-.025a1.529,1.529,0,0,1,1.463.885,2.736,2.736,0,0,1,.14,1.192c-.009.6.014,1.2-.009,1.8a1.51,1.51,0,0,1-1.5,1.4q-1.512.007-3.025,0a1.515,1.515,0,0,1-1.5-1.405c-.021-.6,0-1.2-.008-1.8a3.083,3.083,0,0,1,.1-1.116A1.508,1.508,0,0,1,177.224,359.986Zm.263,1.485v2.265h3.02v-2.265Z" transform="translate(-175.975 -359.958)" fill="#fff"/>
  </g>
</svg>
