<svg xmlns="http://www.w3.org/2000/svg" width="17" height="17" viewBox="0 0 17 17">
  <g id="_1" data-name="1" transform="translate(-54.13 -50.139)">
    <path id="Path_1605" data-name="Path 1605" d="M109.3,64.414H103.45a.634.634,0,0,1-.634-.634V57.99H100.44a.634.634,0,0,1-.471-1.059l5.934-6.582a.634.634,0,0,1,.943,0l5.933,6.582a.634.634,0,0,1-.471,1.059h-2.375v5.789A.634.634,0,0,1,109.3,64.414Zm-5.214-1.269h4.58V57.356a.634.634,0,0,1,.634-.634h1.583l-4.508-5-4.508,5h1.585a.634.634,0,0,1,.634.634Z" transform="translate(-43.744)"/>
    <path id="Path_1606" data-name="Path 1606" d="M68.369,338.69H56.891a2.764,2.764,0,0,1-2.761-2.761v-1.614a.634.634,0,0,1,1.269,0v1.614a1.494,1.494,0,0,0,1.493,1.493H68.369a1.494,1.494,0,0,0,1.492-1.493v-1.614a.634.634,0,0,1,1.269,0v1.614A2.764,2.764,0,0,1,68.369,338.69Z" transform="translate(0 -271.55)"/>
  </g>
</svg>
