<svg xmlns="http://www.w3.org/2000/svg" width="42.742" height="38.719" viewBox="0 0 42.742 38.719">
  <g id="_8150285_video_play_movie_product_video_audio_icon" data-name="8150285_video_play_movie_product video_audio_icon" transform="translate(-4.4 -4.863)">
    <path id="Path_1589" data-name="Path 1589" d="M35.942,25.268a4.894,4.894,0,0,0-.688-3.823A4.779,4.779,0,0,0,33.8,19.992L13.576,6A5.544,5.544,0,0,0,9.37,4.928,5.429,5.429,0,0,0,5.547,7.145,5.964,5.964,0,0,0,4.4,10.128V38.535a5.62,5.62,0,0,0,2.141,3.823,5.7,5.7,0,0,0,3.517,1.223h.726a5.811,5.811,0,0,0,2.676-1.071L33.8,28.327A4.741,4.741,0,0,0,35.942,25.268ZM32.5,24.541a1.606,1.606,0,0,1-.65.956L11.626,39.567h0a2.179,2.179,0,0,1-1.071.421,2.065,2.065,0,0,1-1.606-.459,2.294,2.294,0,0,1-.841-1.262V10.28A2.179,2.179,0,0,1,8.414,9.21a2.026,2.026,0,0,1,1.415-.879h.344a2.256,2.256,0,0,1,1.338.459l20.34,14.185A1.453,1.453,0,0,1,32.5,24.5Z" transform="translate(0 0)" fill="#e5e8ee"/>
    <path id="Path_1590" data-name="Path 1590" d="M30.6,20.116A5.047,5.047,0,0,0,29.334,18.7L12.855,5.817a1.759,1.759,0,0,0-2.447.306,1.721,1.721,0,0,0,.306,2.447L27.269,21.531a1.032,1.032,0,0,1,.268.306,1.453,1.453,0,0,1-.306,1.8L10.791,36.48a1.759,1.759,0,0,0-.306,2.447,1.72,1.72,0,0,0,1.376.688,1.759,1.759,0,0,0,1.109-.382L29.334,26.425A4.894,4.894,0,0,0,30.6,20.116Z" transform="translate(15.899 1.673)" fill="#e5e8ee"/>
  </g>
</svg>
