<svg xmlns="http://www.w3.org/2000/svg" width="19.319" height="18.546" viewBox="0 0 19.319 18.546">
  <g id="WEB_analytics" transform="translate(-4.9 -4.921)">
    <g id="Group_3467" data-name="Group 3467" transform="translate(5 5.025)">
      <path id="Path_1616" data-name="Path 1616" d="M33,5.025v6.029a3.543,3.543,0,0,1,3.169,3.169H42.2A9.559,9.559,0,0,0,33,5.025Zm.354,5.723V5.4a9.24,9.24,0,0,1,8.471,8.47H36.476A3.9,3.9,0,0,0,33.354,10.748Z" transform="translate(-23.084 -5.025)" stroke="#000" stroke-width="0.2"/>
      <path id="Path_1617" data-name="Path 1617" d="M46.067,33.354a9.208,9.208,0,0,1-2.263,5.36l-3.78-3.777a3.846,3.846,0,0,0,.68-1.583h5.377M46.427,33H40.4a3.527,3.527,0,0,1-.851,1.964l4.263,4.262A9.531,9.531,0,0,0,46.427,33Z" transform="translate(-27.312 -23.687)" stroke="#000" stroke-width="0.2"/>
      <path id="Path_1618" data-name="Path 1618" d="M13.854,5.356v5.16a3.768,3.768,0,0,0-3.187,3.676,3.824,3.824,0,0,0,3.9,3.738,3.979,3.979,0,0,0,2.083-.579l3.794,3.641a9.422,9.422,0,0,1-5.876,2.036,9.038,9.038,0,0,1-9.208-8.835,8.969,8.969,0,0,1,8.5-8.821m.354-.345A9.357,9.357,0,0,0,5,14.192a9.375,9.375,0,0,0,9.562,9.175,9.75,9.75,0,0,0,6.4-2.358l-4.272-4.1a3.622,3.622,0,0,1-2.124.68,3.394,3.394,0,0,1-.354-6.779V5.025Z" transform="translate(-5 -5.025)" stroke="#000" stroke-width="0.2"/>
    </g>
  </g>
</svg>
